<svg xmlns="http://www.w3.org/2000/svg" width="421.772" height="428.159" viewBox="0 0 421.772 428.159">
  <g id="DigitalMarkImage" transform="translate(-980.328 -2620.419)">
    <g id="Branding_Design" data-name="Branding Design" transform="translate(960.645 2646.071)">
      <rect id="Rectangle_35" data-name="Rectangle 35" width="24.645" height="16.174" rx="8.087" transform="translate(278.805 200.852) rotate(45)" fill="#87bfc1"/>
      <path id="Path_592" data-name="Path 592" d="M1162.087,968.541h-2.7a2.156,2.156,0,0,1-1.533-.635l-10.69-10.69a2.156,2.156,0,0,1-.635-1.533v-2.7a.308.308,0,1,1,.616,0v2.7a1.541,1.541,0,0,0,.462,1.1l10.69,10.69a1.54,1.54,0,0,0,1.1.462h2.7a.308.308,0,1,1-.008.6Z" transform="translate(-868.435 -749.56)" fill="#262424"/>
      <circle id="Ellipse_31" data-name="Ellipse 31" cx="2.029" cy="2.029" r="2.029" transform="translate(281.164 222.887) rotate(-45)" fill="#fff"/>
      <rect id="Rectangle_36" data-name="Rectangle 36" width="14.633" height="19.562" rx="7.317" transform="translate(251.234 163.092) rotate(45)" fill="#ec615b"/>
      <rect id="Rectangle_37" data-name="Rectangle 37" width="3.697" height="2.696" rx="1.348" transform="translate(246.87 164.845) rotate(45)" fill="#87bfc1"/>
      <rect id="Rectangle_38" data-name="Rectangle 38" width="3.697" height="2.696" rx="1.348" transform="translate(241.061 170.654) rotate(45)" fill="#87bfc1"/>
      <circle id="Ellipse_32" data-name="Ellipse 32" cx="3.415" cy="3.415" r="3.415" transform="translate(244.663 175.182) rotate(-45)" fill="#fff"/>
      <rect id="Rectangle_39" data-name="Rectangle 39" width="68.345" height="99.768" rx="26.49" transform="translate(224.809 135.371) rotate(-90)" fill="#fff"/>
      <path id="Path_593" data-name="Path 593" d="M894.161,135.757h-91.6a4.467,4.467,0,0,1-4.467-4.467V71.107a4.467,4.467,0,0,1,4.467-4.467h91.605a4.467,4.467,0,0,1,4.467,4.467v60.184A4.467,4.467,0,0,1,894.161,135.757Zm-91.6-68.345a3.7,3.7,0,0,0-3.7,3.7v60.183a3.7,3.7,0,0,0,3.7,3.7h91.605a3.7,3.7,0,0,0,3.7-3.7V71.107a3.7,3.7,0,0,0-3.7-3.7H802.557Z" transform="translate(-573.667)" fill="#262424"/>
      <path id="Path_594" data-name="Path 594" d="M1003.6,404.7a3.6,3.6,0,0,1,0,6.483,3.8,3.8,0,0,1-1.6.351H956.4a3.8,3.8,0,0,1-1.61-.353,3.6,3.6,0,0,1,0-6.483,3.8,3.8,0,0,1,1.6-.351h45.594A3.8,3.8,0,0,1,1003.6,404.7Z" transform="translate(-704.508 -285.691)" fill="#ec615b"/>
      <circle id="Ellipse_33" data-name="Ellipse 33" cx="17.414" cy="17.414" r="17.414" transform="translate(257.279 76.138)" fill="#87bfc1"/>
      <path id="Path_595" data-name="Path 595" d="M843.838,414.25l.354,1.183a3.249,3.249,0,0,0,2.181,2.181l1.183.354-1.183.354a3.249,3.249,0,0,0-2.181,2.181l-.354,1.183-.354-1.183a3.249,3.249,0,0,0-2.181-2.181l-1.183-.354,1.183-.354a3.248,3.248,0,0,0,2.187-2.183Z" transform="translate(-609.223 -294.066)" fill="#de9244"/>
      <path id="Path_596" data-name="Path 596" d="M717.4,670.6l.354,1.183a3.249,3.249,0,0,0,2.181,2.181l1.183.354-1.183.354a3.249,3.249,0,0,0-2.181,2.181l-.354,1.183-.354-1.183a3.249,3.249,0,0,0-2.181-2.187l-1.183-.354,1.183-.354a3.248,3.248,0,0,0,2.181-2.181Z" transform="translate(-502.259 -510.93)" fill="#de9244"/>
      <path id="Path_597" data-name="Path 597" d="M1346.308,997.67l.354,1.183a3.248,3.248,0,0,0,2.181,2.181l1.183.354-1.183.354a3.248,3.248,0,0,0-2.181,2.181l-.354,1.183-.354-1.183a3.248,3.248,0,0,0-2.181-2.181l-1.183-.354,1.183-.354a3.248,3.248,0,0,0,2.181-2.181Z" transform="translate(-1034.295 -787.62)" fill="#de9244"/>
      <path id="Path_598" data-name="Path 598" d="M1367.8,578.22l.4,1.335a3.667,3.667,0,0,0,2.464,2.465l1.336.4-1.336.4a3.668,3.668,0,0,0-2.464,2.465l-.4,1.335-.4-1.335a3.668,3.668,0,0,0-2.465-2.465l-1.335-.4,1.335-.4a3.667,3.667,0,0,0,2.465-2.465Z" transform="translate(-1052.069 -432.779)" fill="#de9244"/>
      <path id="Path_599" data-name="Path 599" d="M1285.69,117.86l.308,1.034a2.84,2.84,0,0,0,1.908,1.915l1.034.308-1.034.308a2.841,2.841,0,0,0-1.907,1.907l-.308,1.034-.308-1.034a2.84,2.84,0,0,0-1.91-1.907l-1.034-.308,1.034-.308a2.84,2.84,0,0,0,1.907-1.907Z" transform="translate(-983.41 -43.33)" fill="#de9244"/>
      <circle id="Ellipse_34" data-name="Ellipse 34" cx="1.631" cy="1.631" r="1.631" transform="translate(296.052 172.055)" fill="#87bfc1"/>
      <circle id="Ellipse_35" data-name="Ellipse 35" cx="3.369" cy="3.369" r="3.369" transform="translate(230.899 224.511)" fill="#87bfc1"/>
      <circle id="Ellipse_36" data-name="Ellipse 36" cx="3.369" cy="3.369" r="3.369" transform="translate(204.185 68.793)" fill="#87bfc1"/>
      <path id="Path_600" data-name="Path 600" d="M678.5,1164.67l4.128,14.618,4.943-1.56-1.905-14.217Z" transform="translate(-472.497 -927.915)" fill="#fff"/>
      <path id="Path_601" data-name="Path 601" d="M680.5,1177.556a.385.385,0,0,1-.371-.28L676,1162.658a.385.385,0,0,1,.308-.485l7.166-1.16a.385.385,0,0,1,.444.33l1.905,14.217a.385.385,0,0,1-.267.419l-4.943,1.561A.381.381,0,0,1,680.5,1177.556Zm-3.641-14.692,3.9,13.82,4.256-1.343-1.81-13.5Z" transform="translate(-470.37 -925.798)" fill="#262424"/>
      <path id="Path_602" data-name="Path 602" d="M694.132,1251.977v2.121H668.08s0-1,.085-2.575c.2-3.768.9-10.833,3.249-15.373h9.618a23.565,23.565,0,0,0,10.758,11.924,4.442,4.442,0,0,1,2.318,3.447A4.5,4.5,0,0,1,694.132,1251.977Z" transform="translate(-463.683 -989.366)" fill="#87bfc1"/>
      <path id="Path_603" data-name="Path 603" d="M694.132,1336.4v2.121H668.08s0-1,.085-2.575h25.944a4.5,4.5,0,0,1,.023.454Z" transform="translate(-463.683 -1073.793)" fill="#fff"/>
      <path id="Path_604" data-name="Path 604" d="M692.017,1336.787H665.965a.385.385,0,0,1-.385-.385c0-.011,0-1.029.085-2.6a.385.385,0,0,1,.385-.365h25.944a.385.385,0,0,1,.384.347q.025.246.026.493v2.121a.385.385,0,0,1-.387.387Zm-25.662-.77h25.277v-1.805H666.415C666.378,1335.016,666.361,1335.643,666.355,1336.017Z" transform="translate(-461.568 -1071.67)" fill="#262424"/>
      <path id="Path_605" data-name="Path 605" d="M507.69,654.272,490.746,570.16H469.26v25.012l28.5,60.417Z" transform="translate(-295.488 -425.961)" fill="#87bfc1"/>
      <path id="Path_606" data-name="Path 606" d="M575.79,598.716h-1.414a5.1,5.1,0,0,1-5.018-4.191L569,592.59a.308.308,0,0,1,.6-.109l.35,1.935a4.489,4.489,0,0,0,4.419,3.7h1.414a.308.308,0,1,1,.008.6Z" transform="translate(-379.862 -444.663)" fill="#262424"/>
      <ellipse id="Ellipse_37" data-name="Ellipse 37" cx="5.306" cy="7.953" rx="5.306" ry="7.953" transform="translate(191.258 181.092) rotate(-12.73)" fill="#fff"/>
      <path id="Path_607" data-name="Path 607" d="M515.3,759.045a.308.308,0,0,1-.282-.188l-25.075-60.33a.308.308,0,0,1,.564-.234l25.075,60.331a.308.308,0,0,1-.282.422Z" transform="translate(-312.977 -534.228)" fill="#262424"/>
      <path id="Path_608" data-name="Path 608" d="M650.521,1114.3l-10.279,1.793a1.646,1.646,0,0,1-1.828-1.052l-2.773-7.535a1.647,1.647,0,0,1,1.262-2.192l11.707-2.041a1.647,1.647,0,0,1,1.905,1.34l1.359,7.783a1.647,1.647,0,0,1-1.352,1.9Z" transform="translate(-436.154 -876.936)" fill="#ec615b"/>
      <path id="Path_609" data-name="Path 609" d="M229.363,1164.67l-4.13,14.618-4.943-1.56,1.905-14.217Z" transform="translate(-84.867 -927.915)" fill="#fff"/>
      <path id="Path_610" data-name="Path 610" d="M223.116,1177.547a.383.383,0,0,1-.116-.019l-4.943-1.56a.385.385,0,0,1-.266-.419l1.905-14.217a.385.385,0,0,1,.444-.33l7.166,1.16a.385.385,0,0,1,.308.485l-4.13,14.618A.385.385,0,0,1,223.116,1177.547Zm-4.526-2.215,4.256,1.343,3.908-13.821-6.349-1.027Z" transform="translate(-82.75 -925.789)" fill="#262424"/>
      <path id="Path_611" data-name="Path 611" d="M122.47,1251.977v2.121h26.052s0-1-.085-2.575c-.2-3.768-.9-10.833-3.249-15.373h-9.616a23.536,23.536,0,0,1-10.759,11.924,4.443,4.443,0,0,0-2.318,3.447A4.51,4.51,0,0,0,122.47,1251.977Z" transform="translate(-2.115 -989.366)" fill="#87bfc1"/>
      <path id="Path_612" data-name="Path 612" d="M122.47,1336.4v2.121h26.052s0-1-.085-2.575H122.495A4.51,4.51,0,0,0,122.47,1336.4Z" transform="translate(-2.115 -1073.793)" fill="#fff"/>
      <path id="Path_613" data-name="Path 613" d="M146.407,1336.8H120.355a.385.385,0,0,1-.385-.385v-2.121a4.909,4.909,0,0,1,.026-.493.385.385,0,0,1,.384-.347h25.942a.385.385,0,0,1,.385.365c.085,1.567.085,2.586.085,2.6a.385.385,0,0,1-.385.384Zm-25.667-.77h25.277c0-.373-.022-1-.062-1.805H120.745v1.805Z" transform="translate(0 -1071.679)" fill="#262424"/>
      <path id="Path_614" data-name="Path 614" d="M241.44,654.272,257.3,570.16H279.87l-2.494,26.468-26.009,58.961Z" transform="translate(-102.76 -425.961)" fill="#87bfc1"/>
      <path id="Path_615" data-name="Path 615" d="M339.822,598.648h-1.414a.308.308,0,1,1,0-.616h1.414a4.489,4.489,0,0,0,4.419-3.7l.349-1.934a.308.308,0,0,1,.6.109l-.35,1.935A5.1,5.1,0,0,1,339.822,598.648Z" transform="translate(-184.531 -444.596)" fill="#262424"/>
      <ellipse id="Ellipse_38" data-name="Ellipse 38" cx="7.953" cy="5.306" rx="7.953" ry="5.306" transform="translate(145.759 194.246) rotate(-77.27)" fill="#fff"/>
      <path id="Path_616" data-name="Path 616" d="M303.892,651.489a.308.308,0,0,1-.282-.422l25.052-60.273V571.308a.308.308,0,1,1,.616,0v19.545a.308.308,0,0,1-.023.117L304.174,651.3A.308.308,0,0,1,303.892,651.489Z" transform="translate(-155.335 -426.672)" fill="#262424"/>
      <path id="Path_617" data-name="Path 617" d="M446.49,592.637a.309.309,0,0,1-.2-.077l-1.679-1.482a6.2,6.2,0,0,1-2.1-4.65v-9.9a.308.308,0,1,1,.616,0v9.9a5.593,5.593,0,0,0,1.893,4.193L446.7,592.1a.308.308,0,0,1-.208.533Z" transform="translate(-272.858 -431.087)" fill="#262424"/>
      <path id="Path_618" data-name="Path 618" d="M219.746,1114.006l10.265,1.872a1.647,1.647,0,0,0,1.836-1.038l2.837-7.514a1.647,1.647,0,0,0-1.245-2.2l-11.685-2.132a1.647,1.647,0,0,0-1.916,1.325l-1.417,7.772a1.646,1.646,0,0,0,1.325,1.918Z" transform="translate(-83.263 -876.695)" fill="#ec615b"/>
      <path id="Path_619" data-name="Path 619" d="M541.935,148.645c-2.751.63-1.474,6.348-.82,8.2s-1.4,6.522,1.641,8.678-4.159,7.728,3.081,15.795c5.581,6.217,17.252,4.066,16.626-1.8s-9.182-9.9-9.686-15.274c-.32-3.42,1.828-7.945-3.338-10.537C545.582,151.774,544.107,148.148,541.935,148.645Z" transform="translate(-355.536 -69.334)" fill="#262424"/>
      <path id="Path_620" data-name="Path 620" d="M224.936,394l-7.249,5.886a4.8,4.8,0,0,0-1.18,6.043c2.711,4.929,8.386,13.617,16.511,17.854l1.237-4.521-6.161-13.555,5.758-3.261Z" transform="translate(-81.163 -276.935)" fill="#fff"/>
      <path id="Path_621" data-name="Path 621" d="M231.437,422.486a.288.288,0,0,1-.132-.032c-8.219-4.287-13.948-13.093-16.636-17.971a5.083,5.083,0,0,1,1.251-6.4l7.249-5.886a.286.286,0,0,1,.379.014l8.915,8.446a.288.288,0,0,1-.055.462l-5.53,3.128,6.052,13.316a.288.288,0,0,1,.015.194l-1.232,4.521A.288.288,0,0,1,231.437,422.486Zm-8.1-29.687-7.052,5.727a4.51,4.51,0,0,0-1.109,5.681c2.619,4.752,8.164,13.295,16.076,17.571l1.109-4.074-6.115-13.461a.288.288,0,0,1,.12-.37l5.419-3.07Z" transform="translate(-79.577 -275.352)" fill="#262424"/>
      <path id="Path_622" data-name="Path 622" d="M285.484,291,267,306.172s.539,9.242,9.7,10.628l8.395-4.775Z" transform="translate(-124.382 -189.801)" fill="#ec615b"/>
      <path id="Path_623" data-name="Path 623" d="M291.473,398.284a.308.308,0,0,1-.154-.04,15.879,15.879,0,0,1-7.283-9.173.308.308,0,0,1,.591-.154,15.543,15.543,0,0,0,6.992,8.791.308.308,0,0,1-.146.576Z" transform="translate(-138.792 -272.472)" fill="#262424"/>
      <path id="Path_624" data-name="Path 624" d="M332.38,324.244s21.6,3.651,44.428-.81l-5.978-20.451L372.062,278l-31.269,2s-5.237,9.7-5.237,12.785,3.389,10.2,3.389,10.2Z" transform="translate(-179.692 -178.803)" fill="#ec615b"/>
      <path id="Path_625" data-name="Path 625" d="M354.739,556.31a129.123,129.123,0,0,0,17.252,1.088,113.932,113.932,0,0,0,20.744-1.782.308.308,0,1,0-.114-.605,113.339,113.339,0,0,1-20.63,1.771c-4.974,0-9.267-.271-12.315-.541-1.523-.136-2.736-.27-3.567-.371-.416-.051-.736-.092-.952-.122l-.245-.034-.082-.012a.311.311,0,1,0-.091.616h0Z" transform="translate(-198.382 -413.14)" fill="#262424"/>
      <path id="Path_626" data-name="Path 626" d="M353.879,316.054a.308.308,0,0,1-.28-.183c-1.185-2.74-2.6-6.437-2.6-8.5,0-2.52,3.312-9.177,4.737-11.922a.308.308,0,1,1,.541.28c-1.092,2.112-4.661,9.19-4.661,11.642,0,2.059,1.594,6.057,2.546,8.256a.308.308,0,0,1-.283.425Z" transform="translate(-195.444 -193.389)" fill="#262424"/>
      <path id="Path_627" data-name="Path 627" d="M445.033,269.738a5.244,5.244,0,0,0-5.667,4.983c-.22,2.711,2.773,3.936,2.773,3.936s1.148-2.87,2.192-3.107,2.184,3.473,2.184,3.473a5.811,5.811,0,0,0,4.237-4.356C451.393,271.141,447.975,269.957,445.033,269.738Z" transform="translate(-270.189 -171.8)" fill="#88c0c2"/>
      <path id="Path_628" data-name="Path 628" d="M458.691,233.242l-.8,7.725s1.126,2.2,2.964,2.289,3.615-1.893,3.615-1.893V232.78Z" transform="translate(-285.869 -140.549)" fill="#fff"/>
      <path id="Path_629" data-name="Path 629" d="M459.413,242.029h-.134c-1.981-.1-3.156-2.349-3.205-2.445a.288.288,0,0,1-.029-.154l.8-7.725a.288.288,0,0,1,.263-.257l5.779-.462a.288.288,0,0,1,.308.286v8.572a.288.288,0,0,1-.074.193C463.048,240.12,461.312,242.029,459.413,242.029Zm-2.788-2.639c.206.364,1.212,1.992,2.683,2.061s2.971-1.366,3.315-1.721v-8.164l-5.237.419Z" transform="translate(-284.306 -139.031)" fill="#262424"/>
      <path id="Path_630" data-name="Path 630" d="M314.276,552.649l-1.531,6.682a1.2,1.2,0,0,0,.821,1.428L318.05,562a1.137,1.137,0,0,0,1.36-.707l1.965-5.083a1.214,1.214,0,0,0-.508-1.486l-4.92-2.834a1.138,1.138,0,0,0-1.671.759Z" transform="translate(-163.053 -410.382)" fill="#fff"/>
      <path id="Path_631" data-name="Path 631" d="M316.757,560.672a1.381,1.381,0,0,1-.373-.051l-4.484-1.246a1.476,1.476,0,0,1-1.024-1.768l1.523-6.673h0a1.454,1.454,0,0,1,.838-1.023,1.387,1.387,0,0,1,1.258.071l4.92,2.834a1.5,1.5,0,0,1,.633,1.839l-1.965,5.083A1.437,1.437,0,0,1,316.757,560.672Zm-3.791-9.615-1.53,6.676a.915.915,0,0,0,.616,1.086l4.484,1.242a.853.853,0,0,0,1.017-.535l1.965-5.083a.924.924,0,0,0-.384-1.134l-4.92-2.834a.82.82,0,0,0-.738-.034.886.886,0,0,0-.507.624h0Z" transform="translate(-161.464 -408.732)" fill="#262424"/>
      <path id="Path_632" data-name="Path 632" d="M323.722,531l-.43,1.309a1.275,1.275,0,0,0,.508,1.46l5.471,3.621a1.275,1.275,0,0,0,1.892-.6h0a1.274,1.274,0,0,0-.048-1.034,11.691,11.691,0,0,0-5.712-5.545,1.271,1.271,0,0,0-1.682.789Z" transform="translate(-171.95 -392.086)" fill="#fff"/>
      <path id="Path_633" data-name="Path 633" d="M328.415,536.308a1.556,1.556,0,0,1-.859-.26l-5.471-3.62a1.565,1.565,0,0,1-.616-1.79l.43-1.309h0a1.574,1.574,0,0,1,.832-.935,1.526,1.526,0,0,1,1.232-.029,11.942,11.942,0,0,1,5.853,5.682,1.563,1.563,0,0,1-1.4,2.261Zm-5.976-6.8-.43,1.309a.99.99,0,0,0,.393,1.132l5.471,3.62A.987.987,0,0,0,329.3,534.3a11.416,11.416,0,0,0-5.564-5.408.957.957,0,0,0-.77.018,1,1,0,0,0-.528.593h0Z" transform="translate(-170.394 -390.505)" fill="#262424"/>
      <path id="Path_634" data-name="Path 634" d="M695.288,121.045c-.924.189-2.7.53-4.569.77l4.45.616a.835.835,0,0,1,.718.906,36.841,36.841,0,0,1-.935,5.645.835.835,0,0,1-.77.616,76.268,76.268,0,0,1-9.83-.39s-11.68,15.711-14.376,18.253c-.99.933-7.648,2.853-11.476,4.159v-12.4l7.471-2.061L681.3,124.683l1.6-9.293a.855.855,0,0,1,.843-.71h0a.855.855,0,0,1,.85.77l.482,4.467s5.212-.082,9.975-.518a.835.835,0,0,1,.91.832h0a.836.836,0,0,1-.669.813Z" transform="translate(-455.578 -40.64)" fill="#fff"/>
      <path id="Path_635" data-name="Path 635" d="M656.385,149.868a.385.385,0,0,1-.385-.385v-12.4a.385.385,0,0,1,.282-.371l7.394-2.039,15.152-12.337,1.574-9.151a1.24,1.24,0,0,1,2.455.077l.445,4.113c1.248-.028,5.605-.143,9.595-.508a1.22,1.22,0,0,1,.354,2.411h0c-.462.094-1.16.231-1.984.376l1.848.253a1.217,1.217,0,0,1,1.049,1.325,37.043,37.043,0,0,1-.947,5.712,1.217,1.217,0,0,1-1.137.9,76.554,76.554,0,0,1-9.656-.364c-1.354,1.818-11.724,15.711-14.291,18.128-.739.7-3.723,1.694-8.188,3.122-1.249.4-2.429.779-3.427,1.12A.385.385,0,0,1,656.385,149.868Zm.385-12.492v11.568c.886-.3,1.884-.616,2.927-.953,3.221-1.034,7.227-2.32,7.9-2.95,2.64-2.489,14.214-18.045,14.325-18.2a.384.384,0,0,1,.348-.154,75.973,75.973,0,0,0,9.778.387.45.45,0,0,0,.419-.333,36.358,36.358,0,0,0,.924-5.579.448.448,0,0,0-.387-.488l-4.45-.616a.385.385,0,0,1,0-.77c1.87-.246,3.648-.59,4.541-.77h0a.453.453,0,0,0,.36-.442.445.445,0,0,0-.154-.333.441.441,0,0,0-.344-.116c-4.723.431-9.952.518-10,.519h0a.385.385,0,0,1-.382-.343l-.482-4.467a.47.47,0,0,0-.924-.029l-1.594,9.3a.385.385,0,0,1-.137.233L664.1,135.313a.386.386,0,0,1-.14.072Z" transform="translate(-453.463 -38.503)" fill="#262424"/>
      <path id="Path_636" data-name="Path 636" d="M581.005,279.6,566.3,283.144h0l-.018-.02c-.462-.476-7.87-8.441.793-15.611l10.71-1.591,2.166-.322,1,13.105Z" transform="translate(-374.695 -168.313)" fill="#ec615b"/>
      <path id="Path_637" data-name="Path 637" d="M563.682,295.536a.308.308,0,0,1-.245-.123c-1.745-2.346-5.157-8.424.855-14.171a.308.308,0,0,1,.422.441c-5.661,5.411-2.437,11.151-.787,13.367a.308.308,0,0,1-.245.487Z" transform="translate(-372.996 -181.496)" fill="#262424"/>
      <path id="Path_638" data-name="Path 638" d="M658.871,283.36a.308.308,0,0,1-.308-.286l-.716-11.79a.309.309,0,1,1,.616-.037l.716,11.79a.308.308,0,0,1-.286.323h-.022Z" transform="translate(-455.025 -172.845)" fill="#262424"/>
      <path id="Path_639" data-name="Path 639" d="M529.757,155.209l1.026-.166a.914.914,0,0,1,.866.334,3.081,3.081,0,0,1,.616,1.232,2.129,2.129,0,0,1-.279,1.417.9.9,0,0,1-.55.43l-1.144.323a.924.924,0,0,1-1.163-.81l-.142-1.782A.924.924,0,0,1,529.757,155.209Z" transform="translate(-346.012 -74.775)" fill="#fff"/>
      <path id="Path_640" data-name="Path 640" d="M528.341,157.481a1.217,1.217,0,0,1-1.211-1.12l-.149-1.785a1.223,1.223,0,0,1,1.018-1.3h0l1.026-.166a1.215,1.215,0,0,1,1.149.445,3.389,3.389,0,0,1,.678,1.36,2.413,2.413,0,0,1-.308,1.622,1.2,1.2,0,0,1-.73.573l-1.145.323A1.22,1.22,0,0,1,528.341,157.481Zm.887-3.783a.625.625,0,0,0-.1.008l-1.026.166h0a.616.616,0,0,0-.516.659l.14,1.785a.616.616,0,0,0,.783.545l1.144-.323a.6.6,0,0,0,.368-.287,1.828,1.828,0,0,0,.248-1.212,2.8,2.8,0,0,0-.561-1.109A.616.616,0,0,0,529.229,153.7Zm-1.174-.122Z" transform="translate(-344.315 -73.139)" fill="#262424"/>
      <path id="Path_641" data-name="Path 641" d="M433.928,163c-.77,3.318-.411,7.506,3.569,8.546,2.927.77,7.152-1.8,8.675-6.138s1.848-8.336-3.53-9.612a13.352,13.352,0,0,0-1.751-.266c-3.275-.213-4.53-.279-6.514,5.71C434.2,161.772,434.072,162.377,433.928,163Z" transform="translate(-265.321 -75.144)" fill="#fff"/>
      <path id="Path_642" data-name="Path 642" d="M436.815,170.3a3.977,3.977,0,0,1-1.014-.125c-4.065-1.061-4.621-5.3-3.786-8.9l.054-.239c.125-.553.243-1.078.4-1.55,2.063-6.223,3.455-6.132,6.818-5.913a.3.3,0,1,1-.039.6c-3.212-.208-4.293-.279-6.211,5.505a14.78,14.78,0,0,0-.385,1.494l-.055.24c-.374,1.619-1.232,6.99,3.353,8.19a6.072,6.072,0,0,0,3.638-.544.3.3,0,0,1,.217.559A8.5,8.5,0,0,1,436.815,170.3Z" transform="translate(-263.699 -73.485)" fill="#262424"/>
      <path id="Path_643" data-name="Path 643" d="M436.69,153.746a3.352,3.352,0,0,1-1.177-3.221c.068-.4.2-.935.242-1.44-3.038,1.631-7.782,1.676-9.82,1.608a1.526,1.526,0,0,1-1.432-1.069c-1.126-3.92,3.473-9.224,7.6-7.745,5.8-1.731,10.545,2.452,10.029,6.7C441.559,153.3,437.834,154.736,436.69,153.746Z" transform="translate(-257.478 -63.311)" fill="#262424"/>
      <path id="Path_644" data-name="Path 644" d="M501.309,214.427s2.785-1.591,4.831-.217-.331,6.419-5.7,4.142Z" transform="translate(-321.865 -124.366)" fill="#fff"/>
      <path id="Path_645" data-name="Path 645" d="M501.335,217.573a6.962,6.962,0,0,1-2.708-.6.3.3,0,1,1,.234-.551c3.031,1.283,4.963.154,5.7-1.2a1.816,1.816,0,0,0-.273-2.42c-1.864-1.254-4.489.213-4.515.228a.3.3,0,0,1-.3-.521c.12-.069,2.971-1.667,5.146-.2a2.389,2.389,0,0,1,.462,3.2A4.125,4.125,0,0,1,501.335,217.573Z" transform="translate(-320.177 -122.71)" fill="#262424"/>
    </g>
    <path id="Path_739" data-name="Path 739" d="M527.417,204.228C508.429,129.561,442.816,75.661,365.8,73.5c-40.715-1.143-83.559,12.36-114.752,59.614-55.762,84.47,3.427,142.842,44.691,170.579A258.2,258.2,0,0,1,349.11,351.66c27.873,33.076,81.493,74.177,145.354,9.778C540.75,314.761,540.065,253.964,527.417,204.228Z" transform="matrix(0.883, -0.469, 0.469, 0.883, 744.278, 2806.655)" fill="#fff" opacity="0.48"/>
  </g>
</svg>
