<svg xmlns="http://www.w3.org/2000/svg" width="878.79" height="892.099" viewBox="0 0 878.79 892.099">
  <g id="Mobile_app" data-name="Mobile app" transform="translate(-150 -2288.95)">
    <path id="Path_737" data-name="Path 737" d="M851.532,345.954C811.969,190.378,675.262,78.075,514.8,73.57,429.964,71.189,340.7,99.324,275.7,197.78c-116.183,176,7.14,297.621,93.117,355.412a537.981,537.981,0,0,1,111.2,99.945c58.075,68.915,169.8,154.552,302.854,20.372C879.312,576.255,877.886,449.582,851.532,345.954Z" transform="matrix(0.883, -0.469, 0.469, 0.883, -86.05, 2631.105)" fill="#bee5f4" opacity="0.48"/>
    <g id="Checkout" transform="translate(134.102 2402.905)">
      <path id="Path_646" data-name="Path 646" d="M719.56,1285.711H399.731a.8.8,0,0,1,0-1.6H719.56a.8.8,0,0,1,0,1.6Z" transform="translate(-75.645 -789.018)" fill="#262424"/>
      <path id="Path_647" data-name="Path 647" d="M805.711,1330.962H686.281a.8.8,0,0,1,0-1.6h119.43a.8.8,0,0,1,0,1.6Z" transform="translate(-261.994 -818.445)" fill="#262424"/>
      <path id="Path_648" data-name="Path 648" d="M570.829,1330.962H525.6a.8.8,0,0,1,0-1.6h45.228a.8.8,0,0,1,0,1.6Z" transform="translate(-157.501 -818.445)" fill="#262424"/>
      <path id="Path_649" data-name="Path 649" d="M1146.4,1330.962h-11.088a.8.8,0,0,1,0-1.6H1146.4a.8.8,0,0,1,0,1.6Z" transform="translate(-554.006 -818.445)" fill="#262424"/>
      <path id="Path_650" data-name="Path 650" d="M1232,257.66h0a4.4,4.4,0,0,1,4.4,4.4v50.386a4.4,4.4,0,0,1-4.4,4.4h0Z" transform="translate(-617.406 -121.499)" fill="#ec615b"/>
      <path id="Path_651" data-name="Path 651" d="M1232,455.95h0a4.4,4.4,0,0,1,4.4,4.4v11.316a4.4,4.4,0,0,1-4.4,4.4h0Z" transform="translate(-617.406 -250.451)" fill="#ec615b"/>
      <rect id="Rectangle_40" data-name="Rectangle 40" width="185.209" height="391.752" rx="4.17" transform="translate(429.375 104.141)" fill="#fff"/>
      <path id="Path_652" data-name="Path 652" d="M881.576,557.153H705.245A5.245,5.245,0,0,1,700,551.908V169.045a5.245,5.245,0,0,1,5.245-5.245h176.32a5.245,5.245,0,0,1,5.245,5.245V551.908a5.245,5.245,0,0,1-5.235,5.245ZM705.245,165.4a3.647,3.647,0,0,0-3.637,3.644V551.908a3.651,3.651,0,0,0,3.637,3.647h176.32a3.647,3.647,0,0,0,3.644-3.644V169.045a3.647,3.647,0,0,0-3.644-3.644Z" transform="translate(-271.436 -60.46)" fill="#262424"/>
      <path id="Path_653" data-name="Path 653" d="M896.656,200.4V563.224a3.794,3.794,0,0,1-3.794,3.794H736.554a3.794,3.794,0,0,1-3.794-3.794V200.391a3.791,3.791,0,0,1,3.791-3.791H781.9a4.546,4.546,0,0,1,4.546,4.546h0a4.546,4.546,0,0,0,4.546,4.546h47.455a4.546,4.546,0,0,0,4.546-4.546h0a4.546,4.546,0,0,1,4.546-4.546h45.329A3.815,3.815,0,0,1,896.656,200.4Z" transform="translate(-292.741 -81.791)" fill="#fff"/>
      <path id="Path_654" data-name="Path 654" d="M891.389,566.329H735.081a4.6,4.6,0,0,1-4.591-4.591V198.9a4.6,4.6,0,0,1,4.591-4.591h45.34a5.35,5.35,0,0,1,5.347,5.343,3.749,3.749,0,0,0,3.745,3.745h47.459a3.749,3.749,0,0,0,3.745-3.745,5.35,5.35,0,0,1,5.347-5.343h45.329a4.609,4.609,0,0,1,4.6,4.6V561.734a4.6,4.6,0,0,1-4.605,4.595ZM735.081,195.911a3,3,0,0,0-2.993,2.993v362.83a3,3,0,0,0,2.993,2.993H891.389a3,3,0,0,0,2.993-2.993V198.912a3.007,3.007,0,0,0-3-3H846.063a3.749,3.749,0,0,0-3.745,3.745A5.35,5.35,0,0,1,836.972,205H789.513a5.35,5.35,0,0,1-5.343-5.343,3.749,3.749,0,0,0-3.745-3.745H735.092Z" transform="translate(-291.265 -80.301)" fill="#262424"/>
      <path id="Path_655" data-name="Path 655" d="M896.692,200.4V224.83H732.81V200.377a3.787,3.787,0,0,1,3.787-3.787h45.336a4.546,4.546,0,0,1,4.546,4.546,4.546,4.546,0,0,0,4.546,4.546H838.48a4.546,4.546,0,0,0,4.546-4.546,4.546,4.546,0,0,1,4.546-4.546H892.9A3.818,3.818,0,0,1,896.692,200.4Z" transform="translate(-292.773 -81.784)" fill="#ec615b"/>
      <path id="Path_656" data-name="Path 656" d="M895.2,224.138H731.321a.8.8,0,0,1-.8-.8v-24.45a4.591,4.591,0,0,1,4.588-4.588h45.336a5.35,5.35,0,0,1,5.347,5.343,3.752,3.752,0,0,0,3.745,3.745h47.455a3.749,3.749,0,0,0,3.745-3.745,5.354,5.354,0,0,1,5.347-5.34h45.326a4.612,4.612,0,0,1,4.609,4.609v24.429a.8.8,0,0,1-.815.8Zm-163.081-1.6H894.4V198.912a3.011,3.011,0,0,0-3.007-3.007H846.083a3.752,3.752,0,0,0-3.745,3.745,5.35,5.35,0,0,1-5.347,5.34H789.532a5.354,5.354,0,0,1-5.343-5.343,3.749,3.749,0,0,0-3.745-3.745H735.108a2.99,2.99,0,0,0-2.986,2.986Z" transform="translate(-291.284 -80.295)" fill="#262424"/>
      <path id="Path_657" data-name="Path 657" d="M732.81,1191.691H896.692v18.635a3.79,3.79,0,0,1-3.8,3.8H736.587a3.791,3.791,0,0,1-3.777-3.8V1191.68Z" transform="translate(-292.773 -728.909)" fill="#ec615b"/>
      <path id="Path_658" data-name="Path 658" d="M891.405,1213.448H735.1a4.6,4.6,0,0,1-4.577-4.612v-18.645a.8.8,0,0,1,.8-.8H895.2a.8.8,0,0,1,.8.8v18.645a4.6,4.6,0,0,1-4.6,4.612ZM732.122,1191v17.834a3,3,0,0,0,2.986,3H891.415a3,3,0,0,0,3-3V1191Z" transform="translate(-291.284 -727.42)" fill="#262424"/>
      <rect id="Rectangle_41" data-name="Rectangle 41" width="70.933" height="42.941" rx="6.96" transform="translate(481.717 244.01) rotate(-45)" fill="#88c0c2"/>
      <rect id="Rectangle_42" data-name="Rectangle 42" width="70.933" height="9.246" transform="translate(487.619 249.912) rotate(-45)" fill="#ec615b"/>
      <rect id="Rectangle_43" data-name="Rectangle 43" width="13.603" height="3.728" rx="1.864" transform="translate(508.107 263.091) rotate(-45)" fill="#fff"/>
      <rect id="Rectangle_44" data-name="Rectangle 44" width="7.868" height="3.728" rx="1.864" transform="translate(519.555 251.64) rotate(-45)" fill="#fff"/>
      <rect id="Rectangle_45" data-name="Rectangle 45" width="7.868" height="3.728" rx="1.864" transform="translate(544.354 226.841) rotate(-45)" fill="#fff"/>
      <rect id="Rectangle_46" data-name="Rectangle 46" width="41.07" height="3.602" rx="1.69" transform="translate(501.441 179.294)" fill="#ec615b"/>
      <circle id="Ellipse_39" data-name="Ellipse 39" cx="11.935" cy="11.935" r="11.935" transform="translate(469.966 159.027)" fill="#88c0c2"/>
      <rect id="Rectangle_47" data-name="Rectangle 47" width="12.868" height="3.602" rx="1.69" transform="translate(475.47 169.16)" fill="#ec615b"/>
      <circle id="Ellipse_40" data-name="Ellipse 40" cx="11.935" cy="11.935" r="11.935" transform="translate(550.116 159.027)" fill="#88c0c2"/>
      <path id="Path_659" data-name="Path 659" d="M1076.208,345.214a1.79,1.79,0,0,1-1.794,1.8h-2.836v2.836a1.8,1.8,0,1,1-3.595,0v-2.836h-2.836a1.8,1.8,0,0,1,0-3.595h2.836v-2.836a1.8,1.8,0,1,1,3.595,0v2.822h2.839a1.79,1.79,0,0,1,1.79,1.8Z" transform="translate(-507.73 -174.259)" fill="#ec615b"/>
      <circle id="Ellipse_41" data-name="Ellipse 41" cx="9.777" cy="9.777" r="9.777" transform="translate(484.908 373.85)" fill="#88c0c2"/>
      <circle id="Ellipse_42" data-name="Ellipse 42" cx="3.913" cy="3.913" r="3.913" transform="translate(490.772 379.714)" fill="#fff"/>
      <circle id="Ellipse_43" data-name="Ellipse 43" cx="9.777" cy="9.777" r="9.777" transform="translate(539.49 373.85)" fill="#88c0c2"/>
      <circle id="Ellipse_44" data-name="Ellipse 44" cx="3.913" cy="3.913" r="3.913" transform="translate(545.354 379.714)" fill="#fff"/>
      <path id="Path_660" data-name="Path 660" d="M931.555,628.77H921.6a3.2,3.2,0,0,0-3.105,2.43l-3.189,12.854H816.881q-.327.027-.65.08h-.059c-.073.017-.14.052-.21.073a3.208,3.208,0,0,0-.35.119c-.094.042-.178.094-.266.143a2.774,2.774,0,0,0-.269.164,3.163,3.163,0,0,0-.245.2c-.077.066-.15.129-.22.2s-.133.157-.2.238-.126.161-.182.245a2.425,2.425,0,0,0-.143.266,3.112,3.112,0,0,0-.136.283,3.044,3.044,0,0,0-.094.3c-.028.1-.056.189-.073.287a3.2,3.2,0,0,0-.035.35c0,.073-.021.143-.021.217v.059q.026.327.08.65V648l10.011,40.3c.018.073.052.14.073.21a3.127,3.127,0,0,0,.119.35c.042.094.094.178.143.266a2.416,2.416,0,0,0,.164.269,3.174,3.174,0,0,0,.2.245c.066.077.129.15.2.22s.157.133.238.2.161.126.248.182.175.1.262.143.187.1.283.136.2.063.3.094.192.056.29.077a3.2,3.2,0,0,0,.35.035c.073,0,.147.021.22.021h76.808l-6.5,26.226H835.015a3.2,3.2,0,1,0,0,6.4h64.716a3.2,3.2,0,0,0,3.105-2.43L924.1,635.183h7.452a3.207,3.207,0,0,0,0-6.413Zm-60.981,55.564V650.457h18.533l-6.4,33.877Zm-18.533,0-6.4-33.877h18.533v33.881H852.024Zm-22.593,0-8.392-33.881h18.089l6.392,33.881H829.452Zm59.8,0,6.392-33.881h18.089l-8.392,33.881H889.247Z" transform="translate(-345.397 -362.839)" fill="#ec615b"/>
      <rect id="Rectangle_48" data-name="Rectangle 48" width="111.671" height="27.635" rx="13.818" transform="translate(466.14 411.374)" fill="#ec615b"/>
      <rect id="Rectangle_49" data-name="Rectangle 49" width="77.336" height="7.168" rx="3.584" transform="translate(472.998 421.606)" fill="#fff"/>
      <rect id="Rectangle_50" data-name="Rectangle 50" width="14.4" height="7.168" rx="3.584" transform="translate(556.558 421.606)" fill="#fff"/>
      <rect id="Rectangle_51" data-name="Rectangle 51" width="48.676" height="5.088" rx="2.544" transform="translate(497.64 114.806)" fill="#ec615b"/>
      <path id="Path_661" data-name="Path 661" d="M588.033,998.12l14.746,11.47-4.8,8.623L582.2,1009.5Z" transform="translate(-194.829 -603.034)" fill="#fff"/>
      <path id="Path_662" data-name="Path 662" d="M596.5,1017.556a.8.8,0,0,1-.385-.1l-15.781-8.714a.8.8,0,0,1-.325-1.049l5.833-11.379a.8.8,0,0,1,.539-.416.811.811,0,0,1,.664.15l14.75,11.47a.8.8,0,0,1,.206,1.021l-4.8,8.623a.8.8,0,0,1-.7.4Zm-14.715-9.837,14.4,7.952,4.077-7.343L586.82,997.872Z" transform="translate(-193.35 -601.576)" fill="#262424"/>
      <path id="Path_663" data-name="Path 663" d="M646.269,1024.472v48.8a15.6,15.6,0,0,1-7.606-1.025,12.389,12.389,0,0,1-5.595-4.577c-1.175-1.748-2.836-4.609-4.672-7.9-5.41-9.791-12.267-23.429-12.267-23.429l6.8-13.613a107.822,107.822,0,0,1,15.736.535A73.978,73.978,0,0,1,646.269,1024.472Z" transform="translate(-216.894 -618.982)" fill="#88c0c2"/>
      <ellipse id="Ellipse_45" data-name="Ellipse 45" cx="6.2" cy="4.465" rx="6.2" ry="4.465" transform="translate(406.306 408.091)" fill="#fff"/>
      <path id="Path_664" data-name="Path 664" d="M688.176,1025.626v48.8a15.6,15.6,0,0,1-7.606-1.025V1024.42A73.987,73.987,0,0,1,688.176,1025.626Z" transform="translate(-258.801 -620.137)" fill="#fff"/>
      <path id="Path_665" data-name="Path 665" d="M684.959,1073.836a16.306,16.306,0,0,1-6.186-1.192.8.8,0,0,1-.493-.738v-48.976a.8.8,0,0,1,.885-.8,74.645,74.645,0,0,1,7.693,1.22.8.8,0,0,1,.633.783v48.8a.8.8,0,0,1-.675.79A12.936,12.936,0,0,1,684.959,1073.836Zm-5.077-2.476a15.036,15.036,0,0,0,6,.846v-47.42c-1.913-.392-3.927-.7-6-.958v47.557Z" transform="translate(-257.311 -618.646)" fill="#262424"/>
      <path id="Path_666" data-name="Path 666" d="M661.477,1114.527l7.606-2.5V1131.4a15.6,15.6,0,0,1-7.606-1.025,12.39,12.39,0,0,1-5.595-4.577c-1.175-1.749-2.836-4.609-4.672-7.9Z" transform="translate(-239.707 -677.112)" fill="#fff"/>
      <path id="Path_667" data-name="Path 667" d="M665.879,1130.8a16.308,16.308,0,0,1-6.186-1.193,13.194,13.194,0,0,1-5.945-4.868c-1.074-1.6-2.658-4.277-4.707-7.962a.8.8,0,0,1,.451-1.15l10.263-3.371h0l7.606-2.5a.8.8,0,0,1,1.053.759v19.372a.8.8,0,0,1-.675.79A12.935,12.935,0,0,1,665.879,1130.8Zm-14.966-13.952c1.8,3.21,3.2,5.563,4.165,6.994a11.61,11.61,0,0,0,5.245,4.284,14.889,14.889,0,0,0,6.5,1.049v-17.544Z" transform="translate(-238.232 -675.607)" fill="#262424"/>
      <path id="Path_668" data-name="Path 668" d="M448.908,712.166l-8.9,16.715s-9.728-5.595-22.327-13.431c-14.687-9.162-33.314-21.407-44.962-31.52-5.878-5.1-9.515-9.207-9.291-11.4.192-1.836,1.748-6.144,4.2-12.012,11.382-27.135,41.672-87.372,41.672-87.372,9.952-22.936,35.021-16.351,37.867-4.266s-3.735,29.517-3.735,29.517l-2.179,3.679L431.025,619.3l-29.191,49.13,37.322,34.688Z" transform="translate(-52.554 -316.726)" fill="#88c0c2"/>
      <path id="Path_669" data-name="Path 669" d="M549.823,982.306l-8.9,16.715S531.2,993.426,518.6,985.59l21.47-12.33Z" transform="translate(-153.469 -586.867)" fill="#262424"/>
      <path id="Path_670" data-name="Path 670" d="M566.978,668.682,556.75,685.911,560.9,660.29C560.659,664.339,563.807,667.018,566.978,668.682Z" transform="translate(-178.278 -383.337)" fill="#262424"/>
      <path id="Path_671" data-name="Path 671" d="M372.7,874.835c-5.878-5.1-9.515-9.207-9.291-11.4.192-1.836,1.748-6.144,4.2-12.012,3.553,1.269,6.742,4.77,8.162,9.441C377.494,866.484,376.116,872.083,372.7,874.835Z" transform="translate(-52.541 -507.632)" fill="#fff"/>
      <path id="Path_672" data-name="Path 672" d="M479.48,778.507a.794.794,0,0,1-.5-.178l-53.2-43.291a.8.8,0,0,1-.213-.972L463.16,657a.8.8,0,0,1,1.437.7l-37.322,76.5,52.708,42.888a.8.8,0,0,1-.5,1.42Z" transform="translate(-92.909 -380.931)" fill="#262424"/>
      <path id="Path_673" data-name="Path 673" d="M387.387,877.642a.8.8,0,0,1-.126-1.591l26.314-4.266a.8.8,0,1,1,.255,1.581l-26.314,4.266A.779.779,0,0,1,387.387,877.642Z" transform="translate(-67.62 -520.867)" fill="#262424"/>
      <line id="Line_5" data-name="Line 5" x1="7.113" y2="12.977" transform="translate(383.815 393.488)" fill="#fff"/>
      <path id="Path_674" data-name="Path 674" d="M570.516,1005.726a.8.8,0,0,1-.7-1.185l7.112-12.98a.8.8,0,1,1,1.4.769l-7.113,12.98A.8.8,0,0,1,570.516,1005.726Z" transform="translate(-186.712 -598.461)" fill="#262424"/>
      <path id="Path_675" data-name="Path 675" d="M556.681,1148.62,554.37,1169.6l10.134,3.826,5.154-24.8Z" transform="translate(-176.731 -700.907)" fill="#fff"/>
      <path id="Path_676" data-name="Path 676" d="M563,1172.75a.8.8,0,0,1-.283-.052l-10.141-3.822a.8.8,0,0,1-.514-.836l2.311-20.981a.8.8,0,0,1,.794-.7h12.977a.8.8,0,0,1,.783.962l-5.144,24.789a.8.8,0,0,1-.783.64Zm-9.27-5.151,8.679,3.273,4.766-22.922H555.883Z" transform="translate(-175.226 -699.437)" fill="#262424"/>
      <path id="Path_677" data-name="Path 677" d="M573.669,640.755a.8.8,0,0,1-.35-.073l-2.448-1.126a7.9,7.9,0,0,1-4.591-7.161V616.841a.8.8,0,1,1,1.6,0v15.55a6.294,6.294,0,0,0,3.658,5.707l2.448,1.126a.8.8,0,0,1-.318,1.532Z" transform="translate(-184.476 -354.56)" fill="#262424"/>
      <path id="Path_678" data-name="Path 678" d="M553.019,577.453l.266,36.269L538.35,768.928l25.069,1.867s32.52-148.807,33.867-154.94,1.332-24,0-37.867S553.019,546.786,553.019,577.453Z" transform="translate(-166.312 -318.372)" fill="#88c0c2"/>
      <path id="Path_679" data-name="Path 679" d="M549.744,980.2h-.091a.8.8,0,0,1-.72-.874l2.164-22.509a.8.8,0,0,1,1.591.154l-2.165,22.509A.8.8,0,0,1,549.744,980.2Z" transform="translate(-173.192 -575.734)" fill="#262424"/>
      <path id="Path_680" data-name="Path 680" d="M705.4,647.98a.8.8,0,0,1-.783-.969c1.308-6.015,1.3-23.946,0-37.622a.8.8,0,0,1,1.591-.154c1.35,14.054,1.343,31.863,0,38.115a.8.8,0,0,1-.808.63Z" transform="translate(-274.427 -349.696)" fill="#262424"/>
      <path id="Path_681" data-name="Path 681" d="M628.019,1042.316a.8.8,0,0,1-.783-.972l3.532-16.148a.8.8,0,1,1,1.563.35l-3.532,16.148a.8.8,0,0,1-.78.622Z" transform="translate(-224.104 -620.234)" fill="#262424"/>
      <ellipse id="Ellipse_46" data-name="Ellipse 46" cx="13.068" cy="9.934" rx="13.068" ry="9.934" transform="translate(382.028 368.829) rotate(-79.86)" fill="#fff"/>
      <path id="Path_682" data-name="Path 682" d="M672.889,660.021a.763.763,0,0,1-.182-.021l-3.238-.738a7.766,7.766,0,0,1-6.049-7.6V639.771a.8.8,0,1,1,1.6,0V651.66a6.175,6.175,0,0,0,4.808,6.043l3.238.748a.8.8,0,0,1-.178,1.57Z" transform="translate(-247.648 -369.472)" fill="#262424"/>
      <path id="Path_683" data-name="Path 683" d="M602.448,810.333a.738.738,0,0,1-.787-.941l30.387-153.161V635.111a.8.8,0,1,1,1.6,0v21.2a.826.826,0,0,1,0,.157l-30.4,153.206A.8.8,0,0,1,602.448,810.333Z" transform="translate(-207.475 -366.441)" fill="#262424"/>
      <path id="Path_684" data-name="Path 684" d="M566.293,1143.353h-.08l-20.631-1.78a.8.8,0,1,1,.136-1.595l20.631,1.78a.8.8,0,0,1-.056,1.595Z" transform="translate(-170.519 -695.283)" fill="#262424"/>
      <path id="Path_685" data-name="Path 685" d="M496.1,1204.837l-15.582-4.357s-11.77,6.77-21.551,12.179c-3.3,1.836-6.154,3.5-7.9,4.672a12.389,12.389,0,0,0-4.577,5.595,15.607,15.607,0,0,0-1.025,7.606h50.452C496.636,1220.66,496.1,1204.837,496.1,1204.837Z" transform="translate(-105.838 -734.632)" fill="#88c0c2"/>
      <ellipse id="Ellipse_47" data-name="Ellipse 47" cx="4.465" cy="6.2" rx="4.465" ry="6.2" transform="translate(376.891 472.827)" fill="#fff"/>
      <path id="Path_686" data-name="Path 686" d="M446.484,1264.65a15.606,15.606,0,0,0-1.025,7.606h50.452c.171-2.3.269-4.931.325-7.606Z" transform="translate(-105.838 -776.363)" fill="#fff"/>
      <path id="Path_687" data-name="Path 687" d="M494.42,1271.561H443.968a.8.8,0,0,1-.79-.675,16.3,16.3,0,0,1,1.077-8.043.8.8,0,0,1,.738-.493h49.753a.8.8,0,0,1,.8.818c-.059,2.955-.171,5.528-.325,7.647A.8.8,0,0,1,494.42,1271.561Zm-49.725-1.6h48.98c.112-1.748.2-3.749.252-6H445.538a15.19,15.19,0,0,0-.843,6.008Z" transform="translate(-104.346 -774.867)" fill="#262424"/>
      <path id="Path_688" data-name="Path 688" d="M462.3,1245.557l2.479,7.606H445.41a15.606,15.606,0,0,1,1.025-7.606,12.388,12.388,0,0,1,4.577-5.595c1.748-1.175,4.609-2.836,7.9-4.672Z" transform="translate(-105.805 -757.27)" fill="#fff"/>
      <path id="Path_689" data-name="Path 689" d="M463.29,1252.48H443.918a.8.8,0,0,1-.79-.675,16.3,16.3,0,0,1,1.077-8.043,13.183,13.183,0,0,1,4.868-5.945c1.609-1.077,4.287-2.661,7.962-4.707a.8.8,0,0,1,1.15.448l3.371,10.263h0l2.5,7.605a.8.8,0,0,1-.762,1.053Zm-18.645-1.6h17.54L457,1234.986c-3.2,1.8-5.556,3.2-6.994,4.165a11.6,11.6,0,0,0-4.284,5.245,15.015,15.015,0,0,0-1.056,6.487Z" transform="translate(-104.313 -755.787)" fill="#262424"/>
      <path id="Path_690" data-name="Path 690" d="M448.065,400.05c-2.773,7.116-6.029,14.274-9.092,20.544-5.514,11.34-10.358,19.757-10.358,19.757l4.021,28.5-14.669,7.466c-8.532-12.8-13.868-31.471-13.868-31.471,5.868-44,24.534-79.2,24.534-79.2C443.041,356.05,455.842,380.052,448.065,400.05Z" transform="translate(-79.007 -190.306)" fill="#ec615b"/>
      <path id="Path_691" data-name="Path 691" d="M484.578,501.657c-5.514,11.34-10.358,19.757-10.358,19.757l2.448-33.3Z" transform="translate(-124.608 -271.365)" fill="#262424"/>
      <path id="Path_692" data-name="Path 692" d="M426.508,581.922a.8.8,0,0,1-.5-1.43c.206-.161,5.144-3.927,14.337-1.2a.8.8,0,1,1-.455,1.535c-8.392-2.49-12.833.892-12.879.923a.8.8,0,0,1-.507.171Z" transform="translate(-93.058 -330.02)" fill="#262424"/>
      <path id="Path_693" data-name="Path 693" d="M460.014,630.665c-1.934,1.65,1.154,12.179,8,13.246S464.9,626.486,460.014,630.665Z" transform="translate(-115 -363.67)" fill="#fff"/>
      <path id="Path_694" data-name="Path 694" d="M467.079,643.252a4.356,4.356,0,0,1-.668-.056c-4.458-.7-7.627-5.147-8.788-9.249-.724-2.549-.577-4.567.392-5.4.8-.7,2.546-1.556,5.172.35,3.668,2.658,7.508,9.767,6.224,12.875A2.339,2.339,0,0,1,467.079,643.252Zm-6.9-13.9a1.679,1.679,0,0,0-1.122.42h0c-.308.266-.49,1.636.108,3.742,1.025,3.612,3.738,7.518,7.5,8.1,1.021.157,1.192-.248,1.273-.448.825-2-2.217-8.455-5.686-10.969A3.713,3.713,0,0,0,460.177,629.352Zm-1.643-.189Z" transform="translate(-113.519 -362.169)" fill="#262424"/>
      <path id="Path_695" data-name="Path 695" d="M435.568,646.479c-2.857.462-9.955,11.557-8.8,15.194s10.63,8.459,14.757,2.046C447.125,655.028,440.012,645.769,435.568,646.479Z" transform="translate(-93.666 -374.33)" fill="#fff"/>
      <path id="Path_696" data-name="Path 696" d="M434.256,666.18a9.909,9.909,0,0,1-1.308-.091c-3.742-.5-7.592-3.088-8.392-5.654-.9-2.846,2.175-8.169,3.147-9.732.626-1.018,3.881-6.112,6.294-6.5h0c2.248-.35,4.92,1.273,6.808,4.158a13.012,13.012,0,0,1-.052,14.309,7.41,7.41,0,0,1-6.5,3.511Zm.35-20.425a2.314,2.314,0,0,0-.374.028h0c-.881.14-3,2.206-5.189,5.759-2.227,3.616-3.423,6.994-2.976,8.392.563,1.78,3.717,4.105,7.092,4.546a6,6,0,0,0,6.228-2.7,11.333,11.333,0,0,0,.059-12.568c-1.374-2.088-3.3-3.458-4.84-3.458Zm-.5-.762Z" transform="translate(-92.203 -372.844)" fill="#262424"/>
      <path id="Path_697" data-name="Path 697" d="M559.058,410.286l2.923,13.942s-1.941,1.675-5.13,4.2c-5.91,4.672-16.117,12.288-26.338,17.655l-17.334-20.8-19.467,16s-11.735-12.267-17.869-24.534l6.668-11.735s-8.8-28.8-8.266-70.936c0,0,26.541-16.785,42.934-18.935s47.609,13.729,47.609,13.729l-6.277,78.829Z" transform="translate(-124.609 -158.747)" fill="#ec615b"/>
      <path id="Path_698" data-name="Path 698" d="M686.5,597.013s-1.941,1.675-5.13,4.2L665.7,580.63l17.879,2.448Z" transform="translate(-249.13 -331.532)" fill="#262424"/>
      <path id="Path_699" data-name="Path 699" d="M478.091,434.927a.8.8,0,0,1-.783-.64,279,279,0,0,1-5.378-55.1.8.8,0,0,1,.8-.8h0a.8.8,0,0,1,.8.8,276.456,276.456,0,0,0,5.347,54.774.8.8,0,0,1-.629.937A.812.812,0,0,1,478.091,434.927Z" transform="translate(-123.118 -200.012)" fill="#262424"/>
      <path id="Path_700" data-name="Path 700" d="M583.631,452.72a.8.8,0,0,1-.8-.8c0-46.508,3.039-85.724,3.07-86.116a.8.8,0,1,1,1.595.126c-.031.392-3.067,39.546-3.067,85.99a.8.8,0,0,1-.8.8Z" transform="translate(-195.239 -191.321)" fill="#262424"/>
      <path id="Path_701" data-name="Path 701" d="M585.747,316.13A17.949,17.949,0,0,1,574.707,326.6a66.9,66.9,0,0,0-3.455-10.368,27.171,27.171,0,0,0-4,10.522,12.853,12.853,0,0,1-9.6-10.085c.8-8.085,7.564-14.337,13.515-14.305C584.324,302.444,585.747,316.13,585.747,316.13Z" transform="translate(-178.864 -150.568)" fill="#fff"/>
      <path id="Path_702" data-name="Path 702" d="M565.775,326.032a.823.823,0,0,1-.192-.024,13.781,13.781,0,0,1-10.2-10.746.815.815,0,0,1,0-.2c.878-8.875,8.207-15.036,14.26-15.036h.059c13.715.087,15.358,14.337,15.386,14.487a.8.8,0,0,1-.052.378,18.834,18.834,0,0,1-11.539,10.924.8.8,0,0,1-1.049-.591,59.557,59.557,0,0,0-2.822-8.788,27.17,27.17,0,0,0-3.06,8.875A.8.8,0,0,1,565.775,326.032Zm-8.784-10.91a11.95,11.95,0,0,0,8.148,9.092,27.977,27.977,0,0,1,3.986-9.962.8.8,0,0,1,1.4.136,69.863,69.863,0,0,1,3.3,9.616,17.166,17.166,0,0,0,9.644-9.5c-.227-1.671-2.172-12.788-13.767-12.865C564.313,301.614,557.8,307.363,556.991,315.122Z" transform="translate(-177.383 -149.053)" fill="#262424"/>
      <path id="Path_703" data-name="Path 703" d="M526.721,469.711l-15.333-42.8H481.92l15.334,42.8Z" transform="translate(-129.615 -231.565)" fill="#88c0c2"/>
      <path id="Path_704" data-name="Path 704" d="M481.92,419.392l4.042-4.042H515.43l-4.042,4.042Z" transform="translate(-129.615 -224.048)" fill="#fff"/>
      <path id="Path_705" data-name="Path 705" d="M581.524,462.193l4.042-4.042-15.334-42.8-4.042,4.042Z" transform="translate(-184.417 -224.048)" fill="#fff"/>
      <path id="Path_706" data-name="Path 706" d="M514.5,420.765H487.511a.8.8,0,0,1,0-1.6H514.16l2.724-2.7a.8.8,0,0,1,1.133,1.133l-2.934,2.934A.8.8,0,0,1,514.5,420.765Z" transform="translate(-132.73 -224.619)" fill="#262424"/>
      <path id="Path_707" data-name="Path 707" d="M572.814,448.93a.8.8,0,0,1-.752-.532l-8.169-22.761a.8.8,0,1,1,1.507-.539l8.155,22.761a.8.8,0,0,1-.741,1.07Z" transform="translate(-182.887 -230.024)" fill="#262424"/>
      <path id="Path_708" data-name="Path 708" d="M717.7,428.95c-.213,5.815-1.888,10.186-5.9,11.788-5.536,2.22-10.763-.853-15.487-6.357-7.766-9.092-14.134-24.827-18.114-34.444-6.4-15.466-10.123-29.87-5.738-40.269,4.672-11.06,20.012-6.539,20.012-6.539s6.263,7.871,11.861,23.341C708.407,387.712,718.268,413.463,717.7,428.95Z" transform="translate(-252.288 -182.989)" fill="#ec615b"/>
      <path id="Path_709" data-name="Path 709" d="M694.769,433.69a.8.8,0,0,1-.608-.28c-7.62-8.924-13.8-23.894-17.89-33.807l-.35-.857c-7.868-19.019-9.637-31.629-5.735-40.885,2.144-5.077,6.766-7.822,13.368-7.941a.818.818,0,0,1,.815.787.8.8,0,0,1-.787.815c-6,.1-10.018,2.448-11.924,6.962-3.672,8.711-1.846,21.31,5.742,39.65l.35.857c4.049,9.816,10.172,24.646,17.627,33.374a.8.8,0,0,1-.608,1.325Z" transform="translate(-250.75 -181.497)" fill="#262424"/>
      <path id="Path_710" data-name="Path 710" d="M765.6,563.57c-.213,5.815-1.888,10.186-5.9,11.788-5.535,2.22-10.763-.853-15.487-6.357A12.27,12.27,0,0,1,765.6,563.57Z" transform="translate(-300.187 -317.609)" fill="#fff"/>
      <path id="Path_711" data-name="Path 711" d="M673.186,549.385a25.858,25.858,0,0,1-13.75,2.815c-21.631-.9-48.256-20.554-48.256-20.554l4.8-11.735s20.439-.864,33.283-.566c8.641.2,19.932,5.462,24.055,14.442C675.34,538.154,675.668,543.413,673.186,549.385Z" transform="translate(-213.675 -291.637)" fill="#ec615b"/>
      <path id="Path_712" data-name="Path 712" d="M648.212,550.027a.8.8,0,0,1-.192-.025c-19.065-4.738-38.608-19.065-38.815-19.208a.8.8,0,0,1-.266-.948l4.8-11.735a.8.8,0,0,1,.7-.5c.206,0,20.614-.857,33.335-.567a31.768,31.768,0,0,1,19.642,8.022.8.8,0,0,1-1.084,1.175,30.079,30.079,0,0,0-18.6-7.6c-11.539-.273-29.468.413-32.716.546l-4.35,10.679c3.165,2.252,20.673,14.337,37.734,18.579a.8.8,0,0,1-.192,1.574Z" transform="translate(-212.179 -290.145)" fill="#262424"/>
      <path id="Path_713" data-name="Path 713" d="M759.235,575.352a25.859,25.859,0,0,1-13.749,2.815,12.263,12.263,0,0,1,13.889-18.411C761.389,564.121,761.718,569.38,759.235,575.352Z" transform="translate(-299.725 -317.604)" fill="#fff"/>
      <path id="Path_714" data-name="Path 714" d="M639.639,539.312a.8.8,0,0,1-.528-1.4c5.647-4.972,2.483-13.288,2.448-13.375a.8.8,0,0,1,1.49-.584c.15.385,3.595,9.441-2.885,15.159a.8.8,0,0,1-.525.2Z" transform="translate(-231.665 -294.365)" fill="#262424"/>
      <circle id="Ellipse_48" data-name="Ellipse 48" cx="1.731" cy="1.731" r="1.731" transform="translate(402.907 238.146)" fill="#fff"/>
      <path id="Path_715" data-name="Path 715" d="M626.872,552.083a2.532,2.532,0,1,1,2.532-2.532A2.532,2.532,0,0,1,626.872,552.083Zm0-3.462a.93.93,0,1,0,.93.93A.93.93,0,0,0,626.872,548.622Z" transform="translate(-222.233 -309.675)" fill="#262424"/>
      <path id="Path_716" data-name="Path 716" d="M583.452,499.961s-2.479-12.008-4.179-14.4c-1.4-1.99-14.089,0-18.4.727a1.713,1.713,0,0,0-1.423,1.692h0a1.717,1.717,0,0,0,1.591,1.72l6.959.581-5.945,1.43a2.92,2.92,0,0,0-2.2,3.28,62.647,62.647,0,0,0,1.472,7.731c.535,1.067,9.155,0,9.155,0s.378,7.113,4.455,7.557S584.253,506.9,583.452,499.961Z" transform="translate(-180.034 -269.149)" fill="#fff"/>
      <path id="Path_717" data-name="Path 717" d="M574.09,509.614a6.977,6.977,0,0,1-.752-.042c-3.815-.416-4.829-5.417-5.088-7.459-8.392.969-8.945-.119-9.155-.535-.126-.255-.465-.93-1.546-7.969a3.742,3.742,0,0,1,2.8-4.2l1.112-.269-2.014-.168a2.518,2.518,0,0,1-.22-4.99c11.539-1.972,17.988-2.1,19.187-.4,1.748,2.448,4.049,13.452,4.308,14.687v.07A10.3,10.3,0,0,1,580,506.981a8.511,8.511,0,0,1-5.913,2.633Zm-5.112-9.193a.8.8,0,0,1,.8.759c0,.063.444,6.445,3.742,6.8a6.831,6.831,0,0,0,5.378-2.1,8.707,8.707,0,0,0,2.269-7.291c-.7-3.322-2.738-12.218-4.042-14.068-.528-.7-5.651-.99-17.61,1.049a.913.913,0,0,0-.759.906.923.923,0,0,0,.843.916l6.959.58a.8.8,0,0,1,.122,1.574l-5.945,1.43a2.133,2.133,0,0,0-1.6,2.381,63.927,63.927,0,0,0,1.35,7.371c.906.325,4.972.112,8.392-.308Z" transform="translate(-178.53 -267.653)" fill="#262424"/>
      <path id="Path_718" data-name="Path 718" d="M590.738,258.93l.308,7.99.524,13.669c-4.381,3.5-8.826,4.133-13.34,1.182l.217-6.382.332-9.662Z" transform="translate(-192.247 -122.325)" fill="#fff"/>
      <path id="Path_719" data-name="Path 719" d="M582.546,282.955a11.3,11.3,0,0,1-6.228-2.011.8.8,0,0,1-.35-.7l.549-16.043a.8.8,0,0,1,.406-.668l11.959-6.8a.8.8,0,0,1,1.2.664l.832,21.659a.8.8,0,0,1-.3.654A12.98,12.98,0,0,1,582.546,282.955Zm-4.976-3.116c3.846,2.336,7.693,1.965,11.711-1.126l-.766-19.932L578.077,264.7Z" transform="translate(-190.776 -120.83)" fill="#262424"/>
      <path id="Path_720" data-name="Path 720" d="M586.767,265.64c.171,3.609,1.3,15.858-8.287,17.813l.458-13.361Z" transform="translate(-192.41 -126.689)" fill="#262424"/>
      <path id="Path_721" data-name="Path 721" d="M543.486,232.315c1.3,6.48,3.958,14.124,11.693,12.141,9.193-2.357,14.589-9.546,13.809-18.439s-5.364-13.5-15.9-11.449a16.4,16.4,0,0,0-2.633.738c-5.945,2.245-8.546,7.62-7.585,13.536C543.035,229.909,543.231,231.091,543.486,232.315Z" transform="translate(-169.123 -93.161)" fill="#fff"/>
      <path id="Path_722" data-name="Path 722" d="M551.309,244.991a7.431,7.431,0,0,1-4.151-1.21c-4.2-2.755-5.595-9.392-6.581-15.386-1.231-7.578,3.147-13.683,10.84-15.187a.8.8,0,1,1,.308,1.57c-6.92,1.35-10.683,6.591-9.581,13.361.664,4.095,1.9,11.714,5.878,14.316a6.507,6.507,0,0,0,5.445.654,18.85,18.85,0,0,0,8.557-4.609.8.8,0,0,1,1.112,1.15,20.666,20.666,0,0,1-9.256,5A10.337,10.337,0,0,1,551.309,244.991Z" transform="translate(-167.627 -92.576)" fill="#262424"/>
      <path id="Path_723" data-name="Path 723" d="M562.245,212.162a27.663,27.663,0,0,1-2.689,3.979l-4.2.759-1.049-3.242s-3.846.14-4.661-1.836a1.179,1.179,0,0,1-.052-.14,26.322,26.322,0,0,1-1.129-8.225s-6.934,3.9-10.84,4.7a9.052,9.052,0,0,1-4.728-.7c-3.235-1.224-6.424-5.994-6.217-9.441v-.066c.35-5.067,3.3-1.867,3.3-1.867s.35-4.084,2.836-4.619,4.462,3.007,4.462,3.007a39.78,39.78,0,0,1,14.662-2.049c9.861.538,8.1,7.466,8.1,7.466S567.4,201.5,562.245,212.162Z" transform="translate(-158.718 -78.417)" fill="#262424"/>
      <path id="Path_724" data-name="Path 724" d="M604.82,244.481s3.651-5.042,8.368-4.249,4.546,11.616-6.773,11.889Z" transform="translate(-209.539 -110.11)" fill="#fff"/>
      <path id="Path_725" data-name="Path 725" d="M604.923,251.428a.8.8,0,0,1-.783-.636l-1.591-7.648a.8.8,0,0,1,.136-.633c.161-.224,3.993-5.434,9.148-4.57,2.269.381,3.77,2.7,3.57,5.521-.273,3.846-3.612,7.791-10.459,7.962h-.021Zm-.734-8.242,1.378,6.6c5.752-.374,8.043-3.661,8.235-6.445.14-1.979-.8-3.588-2.238-3.846C608,238.92,605,242.207,604.189,243.186Z" transform="translate(-208.051 -108.612)" fill="#262424"/>
      <circle id="Ellipse_49" data-name="Ellipse 49" cx="10.935" cy="10.935" r="10.935" transform="translate(287.453 93.077)" fill="#88c0c2"/>
      <path id="Path_726" data-name="Path 726" d="M310.668,138.08l4.368,4.368a2.668,2.668,0,0,0,3.773,0l14.966-14.966a2.668,2.668,0,0,0-3.77-3.773l-13.082,13.082-2.483-2.483a2.668,2.668,0,1,0-3.77,3.773h0Z" transform="translate(-17.701 -33.918)" fill="#fff"/>
      <path id="Path_727" data-name="Path 727" d="M315.753,142.234a3.5,3.5,0,0,1-2.448-1.014l-4.368-4.368a3.465,3.465,0,0,1,4.9-4.9l1.916,1.916,12.515-12.515a3.465,3.465,0,1,1,4.9,4.9l-14.966,14.966A3.5,3.5,0,0,1,315.753,142.234Zm-4.368-9.7a1.867,1.867,0,0,0-1.318,3.186h0l4.364,4.361a1.93,1.93,0,0,0,2.64,0l14.966-14.966a1.867,1.867,0,1,0-2.64-2.64l-13.082,13.082a.8.8,0,0,1-.566.234h0a.8.8,0,0,1-.566-.234l-2.476-2.469a1.864,1.864,0,0,0-1.322-.553Z" transform="translate(-16.533 -32.124)" fill="#262424"/>
      <rect id="Rectangle_52" data-name="Rectangle 52" width="37.423" height="5.378" rx="2.689" transform="translate(316.211 100.256)" fill="#ec615b"/>
      <circle id="Ellipse_50" data-name="Ellipse 50" cx="10.935" cy="10.935" r="10.935" transform="translate(287.453 120.216)" fill="#88c0c2"/>
      <path id="Path_728" data-name="Path 728" d="M310.655,215.69l4.368,4.368a2.668,2.668,0,0,0,3.773,0l14.966-14.966a2.668,2.668,0,0,0-3.77-3.773L316.911,214.4l-2.49-2.472a2.668,2.668,0,1,0-3.77,3.773h0Z" transform="translate(-17.688 -84.389)" fill="#fff"/>
      <path id="Path_729" data-name="Path 729" d="M315.753,219.8a3.5,3.5,0,0,1-2.448-1.014l-4.368-4.368a3.465,3.465,0,0,1,4.9-4.9l1.916,1.916,12.519-12.54a3.465,3.465,0,1,1,4.9,4.9L318.2,218.759A3.5,3.5,0,0,1,315.753,219.8Zm-4.368-9.711a1.867,1.867,0,0,0-1.318,3.186h0l4.367,4.368a1.934,1.934,0,0,0,2.64,0l14.966-14.966a1.867,1.867,0,0,0-2.64-2.64l-13.082,13.082a.8.8,0,0,1-.566.234h0a.8.8,0,0,1-.566-.234l-2.479-2.483a1.864,1.864,0,0,0-1.322-.546Z" transform="translate(-16.533 -82.549)" fill="#262424"/>
      <rect id="Rectangle_53" data-name="Rectangle 53" width="37.423" height="5.378" rx="2.689" transform="translate(316.211 127.395)" fill="#ec615b"/>
      <path id="Path_730" data-name="Path 730" d="M362.11,336.653l1.664-.115a3.542,3.542,0,0,0,3.284-3.284l.115-1.664.115,1.664a3.542,3.542,0,0,0,3.284,3.284l1.664.115-1.664.115a3.542,3.542,0,0,0-3.284,3.284l-.115,1.664-.115-1.664a3.542,3.542,0,0,0-3.284-3.284Z" transform="translate(-51.7 -169.577)" fill="#de9244"/>
      <path id="Path_731" data-name="Path 731" d="M849.13,78.292l2.448-.171a5.217,5.217,0,0,0,4.85-4.843l.171-2.448.171,2.448a5.217,5.217,0,0,0,4.843,4.843l2.448.171-2.448.171a5.217,5.217,0,0,0-4.836,4.843l-.171,2.448-.171-2.448a5.217,5.217,0,0,0-4.843-4.843Z" transform="translate(-368.418)" fill="#ec615b"/>
      <path id="Path_732" data-name="Path 732" d="M282.61,590.617l1.857-.129a3.948,3.948,0,0,0,3.661-3.661l.129-1.857.129,1.857a3.948,3.948,0,0,0,3.661,3.661l1.857.129-1.857.129a3.948,3.948,0,0,0-3.658,3.675l-.129,1.857-.133-1.857a3.948,3.948,0,0,0-3.661-3.661Z" transform="translate(0 -334.355)" fill="#de9244"/>
      <path id="Path_733" data-name="Path 733" d="M431.32,1050.341l1.857-.129a3.948,3.948,0,0,0,3.661-3.665l.129-1.857.129,1.857a3.948,3.948,0,0,0,3.661,3.661l1.857.129-1.857.129a3.948,3.948,0,0,0-3.661,3.661l-.129,1.857-.129-1.857a3.948,3.948,0,0,0-3.661-3.661Z" transform="translate(-96.709 -633.319)" fill="#de9244"/>
      <circle id="Ellipse_51" data-name="Ellipse 51" cx="1.699" cy="1.699" r="1.699" transform="translate(308.088 269.372)" fill="#88c0c2"/>
      <circle id="Ellipse_52" data-name="Ellipse 52" cx="5" cy="5" r="5" transform="translate(286.033 192.411)" fill="#88c0c2"/>
      <circle id="Ellipse_53" data-name="Ellipse 53" cx="5" cy="5" r="5" transform="translate(321.036 434.411)" fill="#88c0c2"/>
      <circle id="Ellipse_54" data-name="Ellipse 54" cx="4.333" cy="4.333" r="4.333" transform="translate(418.262 84.677)" fill="#88c0c2"/>
    </g>
  </g>
</svg>
