<svg xmlns="http://www.w3.org/2000/svg" width="421.772" height="428.159" viewBox="0 0 421.772 428.159">
  <g id="webAppImage" transform="translate(-980.328 -2078.419)">
    <path id="Path_738" data-name="Path 738" d="M527.417,204.228C508.429,129.561,442.816,75.661,365.8,73.5c-40.715-1.143-83.559,12.36-114.752,59.614-55.762,84.47,3.427,142.842,44.691,170.579A258.2,258.2,0,0,1,349.11,351.66c27.873,33.076,81.493,74.177,145.354,9.778C540.75,314.761,540.065,253.964,527.417,204.228Z" transform="matrix(0.883, -0.469, 0.469, 0.883, 744.278, 2264.655)" fill="#fff" opacity="0.48"/>
    <g id="Shipping" transform="translate(850.679 2113.172)">
      <path id="Path_493" data-name="Path 493" d="M1113.552,1101.332l-3.292,2.22-2.722-3.665-2.919-3.938,4.69-2.03.841,1.471Z" transform="translate(-712.597 -877.576)" fill="#fff"/>
      <path id="Path_494" data-name="Path 494" d="M1108.522,1102.1a.282.282,0,0,1-.229-.115l-5.641-7.6a.283.283,0,0,1,.116-.431l4.691-2.03a.283.283,0,0,1,.36.12l4.24,7.412a.283.283,0,0,1-.088.379l-3.292,2.22A.282.282,0,0,1,1108.522,1102.1Zm-5.2-7.773,5.265,7.1,2.847-1.919-3.984-6.961Z" transform="translate(-710.858 -875.841)" fill="#262424"/>
      <path id="Path_495" data-name="Path 495" d="M1110.15,1095.391c-.909,1.555-1.9,3.242-2.612,4.5l-2.919-3.938,4.691-2.03Z" transform="translate(-712.597 -877.576)" fill="#262424"/>
      <path id="Path_496" data-name="Path 496" d="M1136.133,1145.265l-12.733,8.045-.924-.862a2.228,2.228,0,0,1-.68-1.3,2.141,2.141,0,0,1,.038-.862c.7-2.794,2.144-9.769,1.06-15.786l5.512-3.357a51.009,51.009,0,0,1,6.926,11.872C1135.62,1143.749,1135.89,1144.5,1136.133,1145.265Z" transform="translate(-727.322 -909.536)" fill="#de9244"/>
      <path id="Path_497" data-name="Path 497" d="M1136.3,1217.4l-12.733,8.045-.924-.862a2.228,2.228,0,0,1-.68-1.3l13.531-8.131Q1135.93,1216.252,1136.3,1217.4Z" transform="translate(-727.486 -981.672)" fill="#fff"/>
      <path id="Path_498" data-name="Path 498" d="M1121.867,1224.036a.282.282,0,0,1-.195-.076l-.923-.862a2.522,2.522,0,0,1-.763-1.464.283.283,0,0,1,.141-.283l13.531-8.131a.283.283,0,0,1,.411.141c.3.74.565,1.5.813,2.268a.283.283,0,0,1-.12.328L1122.029,1224A.28.28,0,0,1,1121.867,1224.036Zm-1.286-2.309a1.953,1.953,0,0,0,.557.954l.762.707,12.36-7.812c-.188-.575-.392-1.147-.609-1.709Z" transform="translate(-725.788 -979.979)" fill="#262424"/>
      <path id="Path_499" data-name="Path 499" d="M926.24,570.355s1.394,32.055,5.068,45.612l19.639,25.723a64.606,64.606,0,0,0,6.715-3.547s-6.462-15.584-7.728-17.738-7.728-8.622-7.728-8.622,3.861-29.269,4.055-39.023C946.512,559.966,926.489,556.8,926.24,570.355Z" transform="translate(-559.428 -420.463)" fill="#88c0c2"/>
      <path id="Path_500" data-name="Path 500" d="M1022.422,949.243a.283.283,0,0,1-.24-.13l-15.459-23.947a.285.285,0,1,1,.479-.31l15.458,23.947a.283.283,0,0,1-.237.439Z" transform="translate(-628.496 -732.296)" fill="#262424"/>
      <path id="Path_501" data-name="Path 501" d="M1095.341,1094.438a.283.283,0,0,1-.141-.533l5.653-3.183a.285.285,0,1,1,.283.5l-5.653,3.183A.284.284,0,0,1,1095.341,1094.438Z" transform="translate(-704.378 -874.798)" fill="#262424"/>
      <path id="Path_502" data-name="Path 502" d="M921.232,1119.654l-1.395,2.9-2.3,4.8-3.695-1.456,2.6-7.59.468-1.365Z" transform="translate(-548.781 -897.342)" fill="#fff"/>
      <path id="Path_503" data-name="Path 503" d="M915.817,1125.887a.28.28,0,0,1-.1-.02l-3.694-1.456a.283.283,0,0,1-.165-.358l3.067-8.955a.283.283,0,0,1,.424-.15l4.326,2.714a.283.283,0,0,1,.1.363l-3.7,7.7A.282.282,0,0,1,915.817,1125.887Zm-3.337-1.907,3.2,1.254,3.473-7.228-3.809-2.383Z" transform="translate(-547.06 -895.593)" fill="#262424"/>
      <path id="Path_504" data-name="Path 504" d="M932.732,1116.94l4.325,2.714-1.395,2.9c-1.064-1.323-2.5-3.109-3.392-4.25Z" transform="translate(-564.606 -897.342)" fill="#262424"/>
      <path id="Path_505" data-name="Path 505" d="M817.531,1181.07l-13.851-5.929.187-1.249a2.228,2.228,0,0,1,.688-1.3,2.142,2.142,0,0,1,.732-.458c2.7-1.011,9.263-3.771,13.605-8.075l5.892,2.637a50.943,50.943,0,0,1-5.858,12.438C818.491,1179.786,818.023,1180.435,817.531,1181.07Z" transform="translate(-454.19 -937.803)" fill="#de9244"/>
      <path id="Path_506" data-name="Path 506" d="M817.531,1232.908l-13.851-5.929.187-1.249a2.227,2.227,0,0,1,.688-1.3l14.368,6.538C818.491,1231.624,818.023,1232.273,817.531,1232.908Z" transform="translate(-454.19 -989.64)" fill="#fff"/>
      <path id="Path_507" data-name="Path 507" d="M815.8,1231.445a.282.282,0,0,1-.112-.023l-13.851-5.929a.283.283,0,0,1-.17-.3l.187-1.251a2.527,2.527,0,0,1,.776-1.466.283.283,0,0,1,.312-.051l14.368,6.538a.283.283,0,0,1,.119.424c-.442.664-.917,1.321-1.413,1.956A.283.283,0,0,1,815.8,1231.445Zm-13.533-6.39,13.441,5.755c.367-.481.724-.973,1.063-1.471l-13.881-6.316a1.959,1.959,0,0,0-.469,1Z" transform="translate(-452.461 -987.894)" fill="#262424"/>
      <path id="Path_508" data-name="Path 508" d="M932.972,560.146l.531,5.5s-6.961,45.992-14.443,63.1a22.656,22.656,0,0,0,7.6,2.661s7.855-15.078,9-18.5,1.393-12.416,1.393-12.416,16.217-26.228,17.1-33.959-2.4-19.131-9.882-19.005q-.609.01-1.192.072A11.469,11.469,0,0,0,932.972,560.146Z" transform="translate(-553.263 -408.404)" fill="#88c0c2"/>
      <path id="Path_509" data-name="Path 509" d="M975.112,637.092l.471,4.876a.211.211,0,0,1,0,.068c-.031.2-3.1,20.352-7.286,38.726a.284.284,0,1,1-.554-.126c4.1-17.993,7.123-37.7,7.272-38.653l-.53-5.464a.294.294,0,0,0-.007-.079A6.826,6.826,0,0,0,975.112,637.092Z" transform="translate(-595.059 -484.754)" fill="#262424"/>
      <path id="Path_510" data-name="Path 510" d="M1031.619,937.93a.283.283,0,0,1,.283.3c-.161,2.934-.527,7.675-1.3,9.992-.141.424-.385,1.026-.741,1.837a.283.283,0,0,1-.259.171.292.292,0,0,1-.115-.023.283.283,0,0,1-.141-.376c.346-.787.589-1.388.722-1.794.745-2.23,1.107-6.926,1.272-9.841a.283.283,0,0,1,.283-.268h0Z" transform="translate(-647.937 -743.633)" fill="#262424"/>
      <path id="Path_511" data-name="Path 511" d="M1000.281,630.038a.281.281,0,0,1-.066-.008c-2.585-.613-2.653-1.026-2.685-1.18-.064-.384-.673-6.109-.7-6.352a.284.284,0,0,1,.565-.061c.21,1.979.615,5.745.688,6.274a8.952,8.952,0,0,0,2.261.765.283.283,0,0,1-.064.563Zm-2.208-1.346" transform="translate(-620.04 -472.513)" fill="#262424"/>
      <path id="Path_512" data-name="Path 512" d="M959.907,672.554a.283.283,0,0,1-.247-.424c2.384-4.162,6.975-12.364,7.287-13.611.615-2.455.848-11.347.848-11.436a.284.284,0,0,1,.024-.106c5.337-12.368,15.435-35.824,15.845-36.983-.027-.615-.485-7.453-.663-10.111a.283.283,0,0,1,.565-.038c.068,1.012.666,9.894.666,10.186,0,.228-5.34,12.72-15.871,37.122-.021.828-.252,9.065-.862,11.5-.41,1.635-7.067,13.262-7.349,13.756A.283.283,0,0,1,959.907,672.554Zm24.038-62.51Z" transform="translate(-588.092 -453.104)" fill="#262424"/>
      <path id="Path_513" data-name="Path 513" d="M935.3,1112.343h-.047a25.726,25.726,0,0,1-6.063-1.979.285.285,0,0,1,.246-.515,26.144,26.144,0,0,0,5.909,1.924.286.286,0,1,1-.045.57Z" transform="translate(-561.826 -891.231)" fill="#262424"/>
      <path id="Path_514" data-name="Path 514" d="M1103.26,618.594a3.414,3.414,0,0,1-2.53-1.064c-2.3-2.359-2.034-7.809-2.021-8.039a.283.283,0,0,1,.565.03c0,.054-.262,5.433,1.861,7.612a2.847,2.847,0,0,0,2.218.893h.007a.283.283,0,1,1,.007.565h-.107Z" transform="translate(-707.508 -461.383)" fill="#262424"/>
      <path id="Path_515" data-name="Path 515" d="M592.974,241.032a.284.284,0,0,1-.044-.565c.49-.076.76-.11.76-.11a.285.285,0,0,1,.071.565s-.266.034-.742.107Z" transform="translate(-273.003 -144.65)" fill="#262424"/>
      <path id="Path_516" data-name="Path 516" d="M503.256,297.275a.284.284,0,1,1-.047-.565c.5-.082.989-.177,1.485-.283a.285.285,0,0,1,.119.557c-.5.106-1.008.2-1.511.283Zm2.981-.637a.285.285,0,0,1-.072-.565c.495-.13.982-.273,1.447-.424a.285.285,0,0,1,.175.543c-.475.154-.972.3-1.477.432a.281.281,0,0,1-.078.014Zm2.9-.941a.283.283,0,0,1-.1-.55c.479-.189.941-.393,1.375-.6a.285.285,0,1,1,.249.513c-.445.218-.921.424-1.413.62a.284.284,0,0,1-.11.018Zm2.732-1.341a.283.283,0,0,1-.148-.529,12.6,12.6,0,0,0,1.223-.848.285.285,0,1,1,.352.448,13.138,13.138,0,0,1-1.272.885.283.283,0,0,1-.157.042Zm2.374-1.89a.283.283,0,0,1-.208-.481,8.042,8.042,0,0,0,.9-1.155.283.283,0,1,1,.475.309,8.587,8.587,0,0,1-.968,1.237.283.283,0,0,1-.206.088Zm1.617-2.544a.283.283,0,0,1-.267-.384,6.831,6.831,0,0,0,.362-1.413.286.286,0,0,1,.565.082,7.416,7.416,0,0,1-.4,1.521.283.283,0,0,1-.264.187Zm.447-2.984a.283.283,0,0,1-.283-.271,9.077,9.077,0,0,0-.117-1.074q-.033-.2-.075-.387a.285.285,0,1,1,.557-.122q.045.2.079.414a9.667,9.667,0,0,1,.124,1.141.283.283,0,0,1-.271.3H516.3Zm-.66-2.953a.283.283,0,0,1-.261-.171,6.564,6.564,0,0,0-.727-1.258.286.286,0,0,1,.459-.339,7.12,7.12,0,0,1,.79,1.368.283.283,0,0,1-.266.392Zm-1.788-2.435a.283.283,0,0,1-.188-.071,8.282,8.282,0,0,0-1.186-.864.285.285,0,1,1,.3-.488,8.827,8.827,0,0,1,1.272.924.283.283,0,0,1-.194.5Zm-85.627-1.02h-.435a.283.283,0,1,1,0-.565h1.521a.283.283,0,0,1,0,.565h-1.087Zm-1.956,0h0l-1.524-.013a.283.283,0,1,1,0-.565l1.521.013a.283.283,0,0,1,0,.56Zm4.564,0a.283.283,0,1,1,0-.565l1.521-.011a.3.3,0,0,1,.283.283.283.283,0,0,1-.283.283l-1.522.011h0Zm3.044-.027a.283.283,0,1,1,0-.565l1.522-.018a.271.271,0,0,1,.283.283.283.283,0,0,1-.283.283l-1.522.018Zm-10.652,0h0q-.766-.013-1.524-.03a.283.283,0,0,1-.283-.291.3.3,0,0,1,.291-.283q.756.017,1.521.03a.283.283,0,0,1-.008.563Zm13.7-.037a.283.283,0,1,1,0-.565l1.487-.023.04.283v.283l-1.522.023h0Zm-16.743-.033h-.008q-.767-.023-1.524-.051a.283.283,0,1,1,.021-.565q.755.028,1.519.051a.283.283,0,0,1-.01.554Zm19.787-.016a.283.283,0,1,1,0-.565l1.522-.025h0a.283.283,0,0,1,0,.565l-1.522.025Zm3.044-.051a.283.283,0,1,1,0-.565l1.522-.024a.283.283,0,1,1,0,.565l-1.522.024Zm3.044-.048a.283.283,0,0,1,0-.565l1.524-.021a.283.283,0,0,1,0,.565l-1.522.021h0Zm-28.917,0h-.013q-.767-.035-1.524-.078a.283.283,0,1,1,.033-.565q.753.042,1.518.078a.283.283,0,0,1-.018.553Zm31.963-.04a.283.283,0,0,1,0-.565l1.524-.017a.283.283,0,1,1,0,.565l-1.522.017h0Zm3.046-.028a.283.283,0,0,1,0-.565l1.524-.009h0a.283.283,0,0,1,0,.565l-1.522.009h0Zm3.136-.011h-.09a.283.283,0,1,1,0-.565h1.524a.283.283,0,0,1,0,.565q-.718-.014-1.437-.014Zm2.961-.021a.283.283,0,0,1,0-.565q.765-.01,1.524-.027h0a.283.283,0,1,1,0,.565q-.762.016-1.528.027h0Zm3.049-.062a.283.283,0,1,1-.007-.565q.762-.02,1.519-.045a.273.273,0,0,1,.294.283.283.283,0,0,1-.283.294l-1.524.045h-.007Zm-47.195-.008h-.028q-.769-.052-1.522-.112a.284.284,0,1,1,.045-.565q.75.059,1.515.112a.283.283,0,0,1-.014.551Zm50.238-.09a.283.283,0,1,1-.01-.565l1.519-.062a.3.3,0,0,1,.3.273.283.283,0,0,1-.273.3l-1.524.062h-.011Zm46.939-.079a.284.284,0,0,1-.113-.023,14.5,14.5,0,0,0-1.4-.514.285.285,0,0,1,.17-.544,15.1,15.1,0,0,1,1.456.536.283.283,0,0,1-.119.531Zm-43.9-.052a.283.283,0,0,1-.013-.565l1.519-.076a.275.275,0,1,1,.024.548l-1.522.076h-.014Zm-56.315-.021h-.031q-.767-.072-1.519-.154a.284.284,0,0,1,.062-.565q.746.082,1.511.154a.283.283,0,0,1-.027.551Zm59.361-.141a.283.283,0,0,1-.016-.565l1.519-.088a.293.293,0,0,1,.3.267.283.283,0,0,1-.269.3l-1.521.088h-.017Zm3.04-.181a.283.283,0,1,1-.017-.565l1.519-.1a.285.285,0,1,1,.037.568l-1.521.1h-.018Zm-65.423-.014L408,279.55q-.767-.1-1.514-.208a.286.286,0,1,1,.083-.565q.741.109,1.5.206a.287.287,0,0,1-.035.574Zm68.462-.182a.283.283,0,0,1-.018-.565l1.519-.1a.283.283,0,0,1,.038.565l-1.519.1h-.02Zm3.037-.208a.283.283,0,0,1-.02-.565l1.519-.106a.283.283,0,0,1,.04.565l-1.519.106Zm-74.515-.066a.275.275,0,0,1-.048,0q-.765-.13-1.505-.283a.288.288,0,1,1,.11-.565q.732.141,1.49.274a.288.288,0,1,1-.047.574Zm103.356-.068a.282.282,0,0,1-.064-.007c-.464-.106-.961-.2-1.476-.29a.286.286,0,0,1,.093-.565c.527.088,1.035.188,1.511.3a.285.285,0,1,1-.072.565Zm-25.805-.089a.283.283,0,0,1-.02-.565l1.519-.1a.283.283,0,0,1,.038.565l-1.519.1h-.02Zm3.039-.208a.283.283,0,1,1-.018-.565l1.521-.1a.283.283,0,1,1,.037.565l-1.519.1Zm3.039-.192a.283.283,0,0,1-.017-.565l1.521-.088a.283.283,0,0,1,.033.565l-1.519.088Zm16.727-.02h-.034c-.481-.058-.989-.107-1.5-.15a.284.284,0,0,1,.047-.565c.524.042,1.037.095,1.525.153a.283.283,0,0,1-.041.564Zm-103.342-.017a.282.282,0,0,1-.064-.007c-.512-.117-1.012-.24-1.488-.366a.285.285,0,1,1,.141-.551c.469.124.964.246,1.468.362a.285.285,0,0,1-.065.565Zm89.655-.131a.283.283,0,1,1-.014-.565q.77-.038,1.524-.069a.283.283,0,0,1,.024.565q-.751.031-1.518.069H491.7Zm10.654-.1h-.016q-.741-.038-1.514-.059a.288.288,0,1,1,.01-.575q.78.021,1.528.061a.285.285,0,1,1-.016.57Zm-7.611-.023a.283.283,0,0,1-.008-.565q.773-.025,1.525-.041h0a.283.283,0,0,1,0,.565q-.749.016-1.519.041h-.01Zm3.044-.065a.283.283,0,1,1,0-.565h1.526a.283.283,0,1,1,0,.565h-1.518Zm-98.692-.455a.283.283,0,0,1-.083-.013c-.5-.154-.989-.318-1.457-.486a.285.285,0,0,1,.194-.537c.458.165.94.325,1.432.476a.283.283,0,0,1-.085.56Zm-2.861-1.036a.282.282,0,0,1-.112-.023c-.485-.206-.955-.424-1.4-.647a.285.285,0,1,1,.257-.509c.431.218.89.424,1.362.632a.283.283,0,0,1-.112.547Zm-2.709-1.378a.283.283,0,0,1-.148-.042c-.451-.276-.882-.565-1.281-.866a.285.285,0,1,1,.342-.457c.384.283.8.565,1.237.835a.283.283,0,0,1-.15.529ZM391.1,273.5a.283.283,0,0,1-.2-.078,11.926,11.926,0,0,1-1.059-1.131.285.285,0,1,1,.442-.359,11.337,11.337,0,0,0,1.008,1.083.283.283,0,0,1-.2.485Zm-1.9-2.352a.283.283,0,0,1-.244-.141,10.425,10.425,0,0,1-.7-1.392.285.285,0,0,1,.527-.216,9.88,9.88,0,0,0,.659,1.316.283.283,0,0,1-.245.434Zm-1.149-2.794a.283.283,0,0,1-.283-.216,11.751,11.751,0,0,1-.264-1.528.284.284,0,0,1,.565-.064,11.214,11.214,0,0,0,.26,1.454.283.283,0,0,1-.278.353Zm-.346-3.006h0a.283.283,0,0,1-.283-.283c0-.52.027-1.04.075-1.545a.284.284,0,0,1,.565.054c-.047.488-.071.989-.072,1.492a.283.283,0,0,1-.286.283Zm.283-3.02a.283.283,0,0,1-.283-.339c.1-.5.221-1.009.366-1.5a.285.285,0,1,1,.547.163c-.141.473-.26.961-.353,1.447a.283.283,0,0,1-.271.232Zm.864-2.906a.283.283,0,0,1-.264-.393c.194-.472.414-.944.654-1.4a.285.285,0,1,1,.5.266c-.233.441-.445.9-.632,1.351a.283.283,0,0,1-.257.177Zm1.413-2.685a.283.283,0,0,1-.239-.441c.283-.424.578-.848.9-1.257a.285.285,0,0,1,.449.351c-.309.4-.6.806-.869,1.217a.283.283,0,0,1-.233.13Zm1.867-2.4a.283.283,0,0,1-.211-.478c.341-.372.707-.742,1.084-1.1a.285.285,0,1,1,.391.414c-.369.349-.724.707-1.054,1.071a.283.283,0,0,1-.2.1Zm2.208-2.1a.283.283,0,0,1-.182-.5c.389-.322.8-.643,1.214-.951a.285.285,0,1,1,.339.458c-.408.3-.807.615-1.187.931a.283.283,0,0,1-.178.071Zm2.451-1.815a.283.283,0,0,1-.157-.523c.417-.283.848-.551,1.3-.818a.285.285,0,0,1,.293.489c-.44.263-.871.533-1.279.8a.283.283,0,0,1-.153.052Zm2.615-1.563a.283.283,0,0,1-.141-.536c.44-.237.9-.473,1.362-.707a.285.285,0,1,1,.252.512c-.458.225-.91.458-1.343.693a.283.283,0,0,1-.123.042Zm2.732-1.345a.283.283,0,0,1-.117-.546q.707-.317,1.413-.6a.285.285,0,1,1,.216.527q-.7.283-1.392.6a.283.283,0,0,1-.114.03Zm2.82-1.159a.283.283,0,0,1-.1-.553q.726-.274,1.442-.519a.285.285,0,1,1,.187.538q-.707.243-1.427.514a.283.283,0,0,1-.095.023Zm2.882-.989a.283.283,0,0,1-.086-.557q.748-.236,1.467-.444a.285.285,0,1,1,.158.548q-.707.2-1.453.44a.282.282,0,0,1-.081.013Zm2.93-.848a.285.285,0,0,1-.072-.565c.516-.141,1.012-.26,1.487-.372a.285.285,0,0,1,.131.554c-.469.112-.962.235-1.474.369a.284.284,0,0,1-.066.016Zm2.968-.707a.284.284,0,1,1-.059-.565c.551-.117,1.056-.218,1.5-.3a.288.288,0,1,1,.106.565c-.444.083-.943.182-1.49.3a.282.282,0,0,1-.054,0Z" transform="translate(-96.763 -146.866)" fill="#262424"/>
      <path id="Path_517" data-name="Path 517" d="M1188.852,625.607a.283.283,0,1,1-.02-.565s.276-.02.742-.073a.285.285,0,1,1,.065.565c-.486.057-.768.076-.768.076h-.02Z" transform="translate(-784.672 -474.903)" fill="#262424"/>
      <path id="Path_518" data-name="Path 518" d="M558.927,79.849a7.954,7.954,0,1,0-15.907,0s-.122,10.467,7.951,13.876C559.045,90.316,558.927,79.849,558.927,79.849Zm-7.956,4.367a4.364,4.364,0,1,1,4.367-4.366,4.364,4.364,0,0,1-4.367,4.366Z" transform="translate(-230.37)" fill="#88c0c2"/>
      <circle id="Ellipse_21" data-name="Ellipse 21" cx="2.273" cy="2.273" r="2.273" transform="translate(318.331 77.577)" fill="#88c0c2"/>
      <path id="Path_519" data-name="Path 519" d="M816.65,269.983c-2.968,1.4-9.218,27.162-9.218,27.162s-8.473,6.858-9.487,9.075,2.36,7.915,6.35,6.858,12.131-9.724,13.335-12.005,5.241-20.211,4.964-24.39S820.355,268.224,816.65,269.983Z" transform="translate(-449.11 -169.743)" fill="#ec615b"/>
      <path id="Path_520" data-name="Path 520" d="M876.51,469.194a.283.283,0,0,1-.232-.119c-1.8-2.516-5.481-3.061-5.512-3.067a.285.285,0,0,1,.079-.565c.161.023,3.957.582,5.9,3.3a.283.283,0,0,1-.237.451Z" transform="translate(-511.583 -337.923)" fill="#262424"/>
      <path id="Path_521" data-name="Path 521" d="M786.555,536.231s-2.011,1.9-2.613,2.376-.475,3.109,1.2,4.275a4.65,4.65,0,0,0,4.055.6,25.863,25.863,0,0,0,2.423-2.439C791.947,540.568,791.148,535.6,786.555,536.231Z" transform="translate(-436.959 -398.66)" fill="#fff"/>
      <path id="Path_522" data-name="Path 522" d="M786.186,542.27a5.168,5.168,0,0,1-2.934-.882,4.2,4.2,0,0,1-1.652-3.28,1.814,1.814,0,0,1,.435-1.453c.585-.462,2.574-2.341,2.595-2.359a.283.283,0,0,1,.157-.075,4.355,4.355,0,0,1,4.6,2.034c.8,1.272,1,2.827.743,3.221a24.986,24.986,0,0,1-2.485,2.506A2.9,2.9,0,0,1,786.186,542.27Zm-1.232-7.491c-.36.341-2.015,1.9-2.565,2.329a1.408,1.408,0,0,0-.219.989,3.657,3.657,0,0,0,1.413,2.827,4.529,4.529,0,0,0,3.72.608,25.943,25.943,0,0,0,2.357-2.37,4.671,4.671,0,0,0-1.013-2.978,3.79,3.79,0,0,0-3.693-1.412Z" transform="translate(-435.23 -396.931)" fill="#262424"/>
      <path id="Path_523" data-name="Path 523" d="M761.363,569.254c1.979.283,4.022-2.059,4.308-3.675s-1.71-3.358-3.833-3.2-3.2,1.649-4.021,3.01S758.893,568.906,761.363,569.254Z" transform="translate(-414.642 -421.152)" fill="#fff"/>
      <path id="Path_524" data-name="Path 524" d="M759.942,567.851a2.559,2.559,0,0,1-.359-.026,5.043,5.043,0,0,1-3.757-2.486,1.879,1.879,0,0,1,0-1.808c.93-1.539,2.089-2.985,4.24-3.146a4.24,4.24,0,0,1,3.392,1.357,2.586,2.586,0,0,1,.742,2.177C763.919,565.577,761.946,567.851,759.942,567.851Zm-.283-.589c1.791.251,3.721-1.935,3.987-3.442a2.037,2.037,0,0,0-.6-1.7,3.655,3.655,0,0,0-2.927-1.17c-1.994.148-3.006,1.555-3.8,2.872a1.32,1.32,0,0,0,.023,1.272,4.431,4.431,0,0,0,3.324,2.164Z" transform="translate(-412.901 -419.442)" fill="#262424"/>
      <g id="Web_application" data-name="Web application">
        <path id="Path_525" data-name="Path 525" d="M929.578,235.14c-5.179,0-14.064,5.273-14.064,5.273l-.283,3.4s-2.331,6.425-2.331,8.853,4.134,7.983,4.134,7.983-2.946,21.048-4.134,30.36c0,0,14.016,8.932,39.1.855l-8.931-31.733,2-19.363S936.451,235.14,929.578,235.14Z" transform="translate(-547.974 -140.173)" fill="#ec615b"/>
      </g>
      <path id="Path_526" data-name="Path 526" d="M939.992,620.9a58.347,58.347,0,0,1-18.232-2.817.285.285,0,1,1,.2-.534c.171.064,17.223,6.232,35.156,0a.285.285,0,1,1,.187.538A52.789,52.789,0,0,1,939.992,620.9Z" transform="translate(-555.422 -468.52)" fill="#262424"/>
      <path id="Path_527" data-name="Path 527" d="M913.742,307.5h-.04a.283.283,0,0,1-.243-.321c.78-5.663,1.432-10.326,1.541-11.108-.565-.772-4.12-5.717-4.12-8.056,0-2.377,2.12-8.339,2.332-8.914l.213-2.544a.285.285,0,1,1,.568.048l-.216,2.584a.275.275,0,0,1-.016.073c-.023.064-2.311,6.411-2.311,8.763,0,2.3,4.037,7.757,4.078,7.812a.283.283,0,0,1,.054.209s-.707,5.009-1.555,11.221A.283.283,0,0,1,913.742,307.5Z" transform="translate(-546.239 -175.508)" fill="#262424"/>
      <path id="Path_528" data-name="Path 528" d="M1010.721,285.729a5.715,5.715,0,0,1-.585-.023c-1.4-.1-1.5-.348-1.548-.468-.154-.386.4-5.639.742-8.737a.284.284,0,0,1,.565.062c-.323,2.923-.8,7.632-.776,8.412a6.908,6.908,0,0,0,1.979.164c.141-.83.587-5.539.848-8.487a.284.284,0,1,1,.565.049c-.339,3.866-.776,8.528-.926,8.791C1011.534,285.586,1011.451,285.729,1010.721,285.729Zm-1.593-.673Zm-.065-.107" transform="translate(-630.115 -175.47)" fill="#262424"/>
      <path id="Path_529" data-name="Path 529" d="M1004.364,221.594c-2.909.191-4.561,2.12-4.752,3.706a3.257,3.257,0,0,0,2.027,3.358s1.077-3.009,1.9-3.009,1.426,3.48,1.426,3.48,3.9,0,4.947-3.326C1010.628,223.513,1007.753,221.372,1004.364,221.594Z" transform="translate(-622.412 -128.527)" fill="#fff"/>
      <path id="Path_530" data-name="Path 530" d="M1003.221,227.664a.283.283,0,0,1-.283-.236c-.317-1.829-.875-3.251-1.145-3.251-.332,0-1.094,1.317-1.632,2.827a.283.283,0,0,1-.349.178,3.54,3.54,0,0,1-2.23-3.665c.213-1.772,2.044-3.762,5.016-3.957h0a6.3,6.3,0,0,1,5.3,1.987,2.776,2.776,0,0,1,.538,2.595C1007.34,227.631,1003.262,227.664,1003.221,227.664Zm-1.425-4.055c.895,0,1.436,2.261,1.662,3.474.835-.059,3.6-.455,4.432-3.109a2.2,2.2,0,0,0-.442-2.072,5.8,5.8,0,0,0-4.806-1.771h0c-2.666.174-4.3,1.911-4.486,3.456a3.048,3.048,0,0,0,1.576,2.955c.352-.944,1.207-2.926,2.062-2.926Zm.824-3.769Z" transform="translate(-620.667 -126.781)" fill="#262424"/>
      <path id="Path_531" data-name="Path 531" d="M1020.286,191.271l-.366,5.47a1.939,1.939,0,0,0,1.345,1.473,4.773,4.773,0,0,0,3.429-1.473l-.348-6.321Z" transform="translate(-639.868 -101.773)" fill="#fff"/>
      <path id="Path_532" data-name="Path 532" d="M1019.656,196.794h-.088a.283.283,0,0,1-.088-.018,2.208,2.208,0,0,1-1.526-1.71.287.287,0,0,1,0-.048l.366-5.47a.283.283,0,0,1,.226-.26l4.061-.848a.283.283,0,0,1,.344.263l.348,6.321a.282.282,0,0,1-.076.211,5.045,5.045,0,0,1-3.566,1.56Zm-.017-.565h0a4.548,4.548,0,0,0,3.081-1.3l-.322-5.865-3.524.739-.349,5.229a1.639,1.639,0,0,0,1.107,1.189Z" transform="translate(-638.179 -100.067)" fill="#262424"/>
      <path id="Path_533" data-name="Path 533" d="M1071.485,88.431c-1.778,1.493,1.3,5.2,2.474,6.309s1.422,5.3,4.452,5.737-.151,7.217,8.171,10.408c6.414,2.459,14.151-3.487,11.5-7.547s-10.431-3.808-12.812-7.552c-1.517-2.383-1.638-6.5-6.391-6.462C1075.333,89.354,1072.888,87.253,1071.485,88.431Z" transform="translate(-683.68 -13.891)" fill="#262424"/>
      <path id="Path_534" data-name="Path 534" d="M979.119,158.6s-1.262-1.874-2.618-1.237-.9,5.156,2.438,4.54Z" transform="translate(-601.974 -73.278)" fill="#fff"/>
      <path id="Path_535" data-name="Path 535" d="M976.61,160.5a2.7,2.7,0,0,1-2.647-2.048c-.372-1.156-.213-2.667.69-3.091,1.555-.734,2.919,1.251,2.975,1.336a.285.285,0,0,1-.474.318c-.011-.017-1.143-1.664-2.261-1.139-.527.249-.707,1.392-.389,2.4a2.19,2.19,0,0,0,2.654,1.6.287.287,0,0,1,.1.565,3.589,3.589,0,0,1-.651.057Z" transform="translate(-600.246 -71.532)" fill="#262424"/>
      <path id="Path_536" data-name="Path 536" d="M1063.229,103.5l.772-.366a.752.752,0,0,1,.76.066,2.529,2.529,0,0,1,.771.834,1.751,1.751,0,0,1,.1,1.183.743.743,0,0,1-.335.465l-.83.517a.753.753,0,0,1-1.1-.373l-.521-1.377a.753.753,0,0,1,.382-.95Z" transform="translate(-676.685 -26.761)" fill="#fff"/>
      <path id="Path_537" data-name="Path 537" d="M1062.35,104.861a1.04,1.04,0,0,1-.972-.671l-.522-1.377a1.045,1.045,0,0,1,.526-1.307h0l.772-.366a1.037,1.037,0,0,1,1.047.092,2.829,2.829,0,0,1,.858.933,2.026,2.026,0,0,1,.13,1.378,1.023,1.023,0,0,1-.464.644l-.83.517A1.035,1.035,0,0,1,1062.35,104.861Zm-.724-2.841a.472.472,0,0,0-.238.589l.521,1.377a.469.469,0,0,0,.687.232l.83-.517a.456.456,0,0,0,.208-.283,1.468,1.468,0,0,0-.079-.989,2.261,2.261,0,0,0-.686-.734.469.469,0,0,0-.472-.04Z" transform="translate(-674.961 -25.025)" fill="#262424"/>
      <path id="Path_538" data-name="Path 538" d="M993.013,125.447c.154,2.8,1.4,6.022,4.777,5.936,2.486-.066,5.229-3.06,5.444-6.835s-.448-7.007-4.99-6.784a10.977,10.977,0,0,0-1.445.191c-2.635.582-3.641.818-3.836,6C992.947,124.411,992.984,124.918,993.013,125.447Z" transform="translate(-616.718 -39.376)" fill="#fff"/>
      <path id="Path_539" data-name="Path 539" d="M995.916,129.916c-3.375,0-4.757-3.186-4.923-6.2l-.013-.209c-.027-.462-.054-.9-.038-1.31.2-5.155,1.194-5.636,4.059-6.27a11.281,11.281,0,0,1,1.491-.2,4.939,4.939,0,0,1,3.911,1.2c1.432,1.439,1.488,3.9,1.378,5.885-.228,4.1-3.2,7.037-5.721,7.1h-.141Zm1.039-13.63q-.211,0-.432.011a10.782,10.782,0,0,0-1.4.184c-2.561.565-3.425.758-3.613,5.734-.014.383.011.807.038,1.256l.013.211h0c.075,1.354.623,5.75,4.485,5.662,2.271-.061,4.964-2.882,5.167-6.566.151-2.733-.233-4.466-1.214-5.451A4.091,4.091,0,0,0,996.955,116.286Z" transform="translate(-614.981 -37.628)" fill="#262424"/>
      <path id="Path_540" data-name="Path 540" d="M990.009,112.073a2.708,2.708,0,0,1-1.71-2.177c-.049-.326-.079-.767-.175-1.167-1.924,2.014-5.554,3.237-7.137,3.7a1.232,1.232,0,0,1-1.368-.462c-1.847-2.728.355-7.953,3.894-7.853,4.018-2.783,8.712-.76,9.38,2.634C993.636,110.507,991.142,112.545,990.009,112.073Z" transform="translate(-604.688 -26.538)" fill="#262424"/>
      <path id="Path_541" data-name="Path 541" d="M1056.292,158.428s1.837-1.9,3.765-1.272.808,5.115-3.957,4.55Z" transform="translate(-670.934 -73.102)" fill="#fff"/>
      <path id="Path_542" data-name="Path 542" d="M1055.159,160.283a7.061,7.061,0,0,1-.834-.051.285.285,0,1,1,.068-.565c2.654.314,4.188-1.03,4.488-2.413a1.261,1.261,0,0,0-.65-1.582c-1.742-.557-3.456,1.187-3.472,1.2a.285.285,0,0,1-.41-.4c.079-.082,1.979-2.014,4.056-1.351a1.782,1.782,0,0,1,1.033,2.246C1059.118,158.845,1057.658,160.283,1055.159,160.283Z" transform="translate(-669.195 -71.352)" fill="#262424"/>
      <path id="Path_543" data-name="Path 543" d="M590.794,574.42l-13.553-4.4a2.447,2.447,0,0,0-3.094,1.607l-2.591,8.414H547.843l2.137-6.942,12.986,4.21a1.521,1.521,0,1,0,.938-2.892l-13.55-4.4a2.447,2.447,0,0,0-3.094,1.607l-27.346,88.8a1.521,1.521,0,1,0,2.906.895l24.092-78.245h23.711l-23.817,77.35a1.521,1.521,0,1,0,2.906.895L576.879,573.1l12.976,4.212a1.521,1.521,0,0,0,.938-2.893Z" transform="translate(-210.463 -427.622)" fill="#fff"/>
      <path id="Path_544" data-name="Path 544" d="M546.623,660.955a1.806,1.806,0,0,1-1.726-2.338l23.7-76.98H545.48l-24.027,78.044A1.806,1.806,0,1,1,518,658.619l27.341-88.8a2.732,2.732,0,0,1,3.454-1.795l13.548,4.4a1.805,1.805,0,1,1-1.114,3.434l-12.7-4.121-1.939,6.3h23.114l2.529-8.212a2.732,2.732,0,0,1,3.454-1.795l13.55,4.4h0a1.805,1.805,0,1,1-1.114,3.434l-12.7-4.123-27.083,87.952A1.8,1.8,0,0,1,546.623,660.955Zm-1.347-79.889h23.7a.283.283,0,0,1,.273.369l-23.817,77.346a1.235,1.235,0,0,0,2.362.726l27.166-88.223a.283.283,0,0,1,.36-.187L588.3,575.31a1.235,1.235,0,1,0,.762-2.35l-13.55-4.4a2.162,2.162,0,0,0-2.734,1.413l-2.591,8.414a.283.283,0,0,1-.273.2H546.2a.283.283,0,0,1-.273-.369l2.137-6.942a.282.282,0,0,1,.36-.187L561.4,575.3a1.235,1.235,0,0,0,.77-2.343l-13.55-4.4a2.162,2.162,0,0,0-2.733,1.413l-27.343,88.806a1.235,1.235,0,1,0,2.362.726L545,581.269a.283.283,0,0,1,.271-.2Z" transform="translate(-208.819 -425.89)" fill="#262424"/>
      <path id="Path_545" data-name="Path 545" d="M749.041,567.109a1.3,1.3,0,0,0-1.039.8,32.156,32.156,0,0,0-1.456,3.768c-.222,1.013,1.425,1.868,2.281,1.141,0,0,.411,1.2,2.565,1.647s3.2-1.9,3.392-3.109-3.42-3.864-4.593-2.534C750.189,568.822,750.256,567,749.041,567.109Z" transform="translate(-405.114 -425.218)" fill="#fff"/>
      <path id="Path_546" data-name="Path 546" d="M750.171,573.068a2.892,2.892,0,0,1-.584-.062,3.883,3.883,0,0,1-2.613-1.519,1.833,1.833,0,0,1-1.7-.141,1.394,1.394,0,0,1-.76-1.468,31.1,31.1,0,0,1,1.473-3.816,1.574,1.574,0,0,1,1.272-.965h0a1.131,1.131,0,0,1,.916.3,1.994,1.994,0,0,1,.513,1.17,2.572,2.572,0,0,1,2.058.247c1.327.623,2.705,1.952,2.562,2.859a4.7,4.7,0,0,1-1.7,2.94A2.5,2.5,0,0,1,750.171,573.068Zm-3.092-2.273a.282.282,0,0,1,.27.192c.016.04.41,1.06,2.353,1.46a1.992,1.992,0,0,0,1.594-.307,4.119,4.119,0,0,0,1.456-2.56c.078-.493-.961-1.654-2.242-2.261-.4-.189-1.392-.574-1.856-.047a.283.283,0,0,1-.5-.2,1.956,1.956,0,0,0-.366-1.272.565.565,0,0,0-.469-.141h0a1,1,0,0,0-.8.625A34.35,34.35,0,0,0,745.079,570a.861.861,0,0,0,.5.858,1.167,1.167,0,0,0,1.321,0A.282.282,0,0,1,747.079,570.8Zm.213-5.419Z" transform="translate(-403.367 -423.485)" fill="#262424"/>
      <path id="Path_547" data-name="Path 547" d="M761.467,555.12a10.884,10.884,0,0,0-4.877-.791c-.92.158-1.108,5.543-.444,6.018s1.646-.189,1.837-.888.317-1.3.317-1.3,3.928.411,4.624-.095C762.923,558.065,764.1,556.292,761.467,555.12Z" transform="translate(-413.034 -414.208)" fill="#fff"/>
      <path id="Path_548" data-name="Path 548" d="M754.911,559.093a1.143,1.143,0,0,1-.673-.213c-.707-.506-.584-3.785-.253-5.229.188-.823.447-1.235.814-1.3a11.154,11.154,0,0,1,5.043.813,2.966,2.966,0,0,1,1.811,1.738,2.086,2.086,0,0,1-.232,1.625.284.284,0,0,1-.071.073c-.678.493-3.533.271-4.568.174-.055.242-.141.633-.266,1.064a1.863,1.863,0,0,1-1.131,1.172A1.411,1.411,0,0,1,754.911,559.093Zm-.02-6.182s-.235.13-.424,1.211c-.322,1.825-.17,4.044.1,4.3a.667.667,0,0,0,.62.052,1.272,1.272,0,0,0,.772-.784c.185-.68.311-1.272.312-1.282a.283.283,0,0,1,.308-.225c1.538.161,3.863.257,4.381-.016a1.517,1.517,0,0,0,.131-1.112,2.436,2.436,0,0,0-1.492-1.37h0a10.638,10.638,0,0,0-4.714-.772h0Zm6.287,3.457Z" transform="translate(-411.293 -412.509)" fill="#262424"/>
      <path id="Path_549" data-name="Path 549" d="M502.133,928.841H481.8a.284.284,0,0,1-.109-.021l-21.162-8.714a.283.283,0,0,1,.109-.548h20.324a.28.28,0,0,1,.109.021l21.164,8.713a.283.283,0,0,1-.106.548Zm-20.269-.565h18.825l-19.779-8.148H462.082Z" transform="translate(-159.382 -727.857)" fill="#262424"/>
      <path id="Path_550" data-name="Path 550" d="M613.653,752.19l-7.413,23.94,21.164,8.715,7.413-23.941Z" transform="translate(-284.656 -584.145)" fill="#88c0c2"/>
      <path id="Path_551" data-name="Path 551" d="M719,779.992l-1.189,3.827a.831.831,0,0,1-1.111.523l-2.755-1.131a1.251,1.251,0,0,1-.718-1.526l1.117-3.605Z" transform="translate(-376.474 -606.376)" fill="#fff"/>
      <path id="Path_552" data-name="Path 552" d="M469.843,752.19l-7.413,23.94h20.326l7.413-23.94Z" transform="translate(-161.171 -584.145)" fill="#88c0c2"/>
      <path id="Path_553" data-name="Path 553" d="M491.717,865.01l-1.413,4.585a1.016,1.016,0,0,1-.97.715h-5.686a.611.611,0,0,1-.582-.79l1.413-4.585a1.016,1.016,0,0,1,.97-.715h5.68a.61.61,0,0,1,.588.79Z" transform="translate(-178.867 -680.341)" fill="#fff"/>
      <path id="Path_554" data-name="Path 554" d="M564.124,864.72l-.253.82a.554.554,0,0,1-.53.392h-6.313a.393.393,0,0,1-.376-.51l.253-.82a.554.554,0,0,1,.53-.392h6.318a.393.393,0,0,1,.372.51Z" transform="translate(-242.06 -680.332)" fill="#fff"/>
      <path id="Path_555" data-name="Path 555" d="M557.511,884.53l-.253.82a.554.554,0,0,1-.53.391h-6.311a.393.393,0,0,1-.376-.51l.253-.82a.554.554,0,0,1,.53-.391h6.315a.393.393,0,0,1,.372.51Z" transform="translate(-236.384 -697.343)" fill="#fff"/>
      <path id="Path_556" data-name="Path 556" d="M608.022,781.189a.284.284,0,0,1-.273-.369l6.5-21a.285.285,0,0,1,.544.168l-6.5,21A.283.283,0,0,1,608.022,781.189Z" transform="translate(-285.94 -590.524)" fill="#262424"/>
      <path id="Path_557" data-name="Path 557" d="M326.91,1132.03H353.8l28,11.53H354.91Z" transform="translate(-44.805 -910.3)" fill="#de9244"/>
      <path id="Path_558" data-name="Path 558" d="M526.989,907.92l-9.809,31.675,28,11.53,9.809-31.675Z" transform="translate(-208.183 -717.865)" fill="#de9244"/>
      <path id="Path_559" data-name="Path 559" d="M666.4,944.666l-1.57,5.065a1.1,1.1,0,0,1-1.468.691l-3.644-1.5a1.655,1.655,0,0,1-.95-2.02l1.477-4.771Z" transform="translate(-329.695 -747.239)" fill="#fff"/>
      <path id="Path_560" data-name="Path 560" d="M336.719,907.92l-9.809,31.675H353.8l9.809-31.675Z" transform="translate(-44.805 -717.865)" fill="#de9244"/>
      <path id="Path_561" data-name="Path 561" d="M365.638,1057.2l-1.877,6.066a1.344,1.344,0,0,1-1.283.947h-7.516a.807.807,0,0,1-.772-1.046l1.877-6.066a1.344,1.344,0,0,1,1.283-.947h7.523a.807.807,0,0,1,.765,1.046Z" transform="translate(-68.199 -845.144)" fill="#fff"/>
      <path id="Path_562" data-name="Path 562" d="M461.447,1056.814l-.335,1.085a.734.734,0,0,1-.707.517h-8.35a.52.52,0,0,1-.5-.674l.335-1.086a.734.734,0,0,1,.707-.517h8.354a.52.52,0,0,1,.493.674Z" transform="translate(-151.816 -845.136)" fill="#fff"/>
      <path id="Path_563" data-name="Path 563" d="M452.707,1083.034l-.335,1.085a.734.734,0,0,1-.707.517h-8.35a.52.52,0,0,1-.5-.674l.335-1.085a.734.734,0,0,1,.707-.517h8.354a.52.52,0,0,1,.493.674Z" transform="translate(-144.311 -867.65)" fill="#fff"/>
      <path id="Path_564" data-name="Path 564" d="M520.092,946.735a.283.283,0,0,1-.273-.369l8.6-27.785a.285.285,0,0,1,.544.168l-8.6,27.785A.283.283,0,0,1,520.092,946.735Z" transform="translate(-210.438 -726.846)" fill="#262424"/>
      <path id="Path_565" data-name="Path 565" d="M345.577,1124.855l-30.7-12.637a1.712,1.712,0,0,0-.652-.129H284.744a1.71,1.71,0,0,0-.652,3.292l30.7,12.641a1.711,1.711,0,0,0,.652.129h29.49a1.71,1.71,0,0,0,.644-3.3Zm-52.187-9.348h5.75l22.39,9.219h-5.75Zm37.126,9.219-22.39-9.219h5.757l22.391,9.219Z" transform="translate(-7.129 -893.178)" fill="#fff"/>
      <path id="Path_566" data-name="Path 566" d="M343.222,1126.681h-29.49a1.975,1.975,0,0,1-.759-.15l-30.7-12.641a2,2,0,0,1,.759-3.84h29.483a1.984,1.984,0,0,1,.759.15l30.7,12.641a2,2,0,0,1-.752,3.84Zm-60.189-16.061a1.426,1.426,0,0,0-.543,2.743L313.19,1126a1.413,1.413,0,0,0,.543.107h29.49a1.426,1.426,0,0,0,.543-2.743l-30.7-12.641a1.413,1.413,0,0,0-.543-.107h-29.49Zm51.535,12.641h-5.762a.286.286,0,0,1-.109-.021l-22.39-9.219a.283.283,0,0,1,.109-.549h5.757a.278.278,0,0,1,.109.021l22.39,9.219a.283.283,0,0,1-.1.548Zm-5.7-.565h4.26l-21-8.654h-4.267Zm-9.045.565H314.07a.286.286,0,0,1-.109-.021l-22.39-9.219a.283.283,0,0,1,.109-.549h5.75a.278.278,0,0,1,.109.021l22.39,9.219a.283.283,0,0,1-.1.548Zm-5.7-.565h4.258l-21.007-8.65H293.12Z" transform="translate(-5.418 -891.426)" fill="#262424"/>
      <path id="Path_567" data-name="Path 567" d="M385.482,1205.31V1217h-4.226c-2.178,0-3.946-2.615-3.946-5.846s1.768-5.841,3.946-5.841h4.227Z" transform="translate(-88.082 -973.223)" fill="#88c0c2"/>
      <ellipse id="Ellipse_22" data-name="Ellipse 22" cx="3.943" cy="5.844" rx="3.943" ry="5.844" transform="translate(293.46 232.087)" fill="#de9244"/>
      <ellipse id="Ellipse_23" data-name="Ellipse 23" cx="1.998" cy="2.961" rx="1.998" ry="2.961" transform="translate(295.405 234.971)" fill="#88c0c2"/>
      <path id="Path_568" data-name="Path 568" d="M567.863,1205.31V1217h-4.227c-2.178,0-3.946-2.615-3.946-5.846s1.768-5.841,3.946-5.841Z" transform="translate(-244.685 -973.223)" fill="#88c0c2"/>
      <ellipse id="Ellipse_24" data-name="Ellipse 24" cx="3.943" cy="5.844" rx="3.943" ry="5.844" transform="translate(319.237 232.087)" fill="#de9244"/>
      <ellipse id="Ellipse_25" data-name="Ellipse 25" cx="1.998" cy="2.961" rx="1.998" ry="2.961" transform="translate(321.182 234.971)" fill="#88c0c2"/>
      <path id="Path_569" data-name="Path 569" d="M938.692,560.131l-1.394.9a48.076,48.076,0,0,0-5.607-1.077c-.7.095-2.629,5.29-2.4,6.176s1.3.666,1.71.222c0,0-.158,1.131,2.154,2.044s4.561.158,5.194-1.647S940,564.591,940,564.591l1.422-.752A4.94,4.94,0,0,0,938.692,560.131Z" transform="translate(-562.03 -419.077)" fill="#fff"/>
      <path id="Path_570" data-name="Path 570" d="M933.37,567.327a5.61,5.61,0,0,1-2.062-.41c-1.531-.608-2.063-1.334-2.244-1.816a1.511,1.511,0,0,1-1.04.141,1.025,1.025,0,0,1-.75-.789c-.23-.92,1.244-4.842,2.032-6.008.225-.332.414-.493.612-.52a39.457,39.457,0,0,1,5.593,1.054l1.292-.837a.282.282,0,0,1,.259-.027,5.172,5.172,0,0,1,2.9,3.933.283.283,0,0,1-.15.291l-1.422.752-.04.017a3.138,3.138,0,0,0-1.476,1.987,3.224,3.224,0,0,1-1.738,1.863A4.263,4.263,0,0,1,933.37,567.327Zm-4.11-3a.282.282,0,0,1,.283.325s-.055.931,1.979,1.738a4.371,4.371,0,0,0,3.384.057,2.623,2.623,0,0,0,1.436-1.532,3.626,3.626,0,0,1,1.8-2.326l1.221-.646a4.6,4.6,0,0,0-2.376-3.231l-1.272.821a.282.282,0,0,1-.221.038,44.381,44.381,0,0,0-5.5-1.071c-.553.283-2.356,5.075-2.169,5.824a.461.461,0,0,0,.339.373,1.014,1.014,0,0,0,.885-.283A.282.282,0,0,1,929.26,564.324Z" transform="translate(-560.295 -417.33)" fill="#262424"/>
      <path id="Path_571" data-name="Path 571" d="M995.974,532.31l-5.194,3.548a8.465,8.465,0,0,0,3.721,6.429l5.936-3.754Z" transform="translate(-614.846 -395.342)" fill="#fff"/>
      <path id="Path_572" data-name="Path 572" d="M992.765,540.83a.282.282,0,0,1-.15-.042,8.662,8.662,0,0,1-3.857-6.663.283.283,0,0,1,.124-.246l5.2-3.548a.283.283,0,0,1,.393.069l4.466,6.219a.283.283,0,0,1-.079.407l-5.936,3.754A.282.282,0,0,1,992.765,540.83Zm-3.426-6.572a8.216,8.216,0,0,0,3.426,5.95l5.53-3.5-4.127-5.752Z" transform="translate(-613.11 -393.599)" fill="#262424"/>
      <path id="Path_573" data-name="Path 573" d="M1036.952,272.054c3.437,1.478,7.539,28.38,7.349,30.281s-17.171,14.131-18.627,14.447-5.765-7.1-5.765-8.236,12.48-9.946,12.48-9.946-2.005-16.819-2.343-19.131C1029.6,276.435,1031.5,269.714,1036.952,272.054Z" transform="translate(-639.859 -171.453)" fill="#ec615b"/>
      <path id="Path_574" data-name="Path 574" d="M1023.824,315.361a1.585,1.585,0,0,1-.944-.434c-1.847-1.49-5.01-7.031-5.01-8.1,0-1.149,8.6-7.349,12.461-10.081-.211-1.768-2.007-16.791-2.323-18.956a9.322,9.322,0,0,1,1.789-6.619,4.124,4.124,0,0,1,3.109-1.6h.01a.283.283,0,0,1,.01.565,3.59,3.59,0,0,0-2.7,1.4,8.828,8.828,0,0,0-1.662,6.171c.335,2.3,2.325,18.972,2.345,19.14a.283.283,0,0,1-.119.267c-5.847,4.126-12.168,8.94-12.361,9.731,0,.787,3,6.186,4.805,7.632.4.321.575.315.62.3.765-.167,7.106-4.523,12.3-8.583a.285.285,0,0,1,.35.449c-4.664,3.644-11.5,8.467-12.532,8.692a.736.736,0,0,1-.148.024Z" transform="translate(-638.107 -169.736)" fill="#262424"/>
      <path id="Path_575" data-name="Path 575" d="M1119.46,465.2a.283.283,0,0,1-.163-.051,13.611,13.611,0,0,0-5.875-1.945.283.283,0,1,1,.041-.565,14.023,14.023,0,0,1,6.161,2.045.283.283,0,0,1-.164.516Z" transform="translate(-719.929 -335.514)" fill="#262424"/>
      <path id="Path_576" data-name="Path 576" d="M564.679,303.213a4.266,4.266,0,0,0-1.313.207,7.119,7.119,0,1,0-14.057,2.262,3.392,3.392,0,1,0-2.052,6.077h17.422a4.275,4.275,0,1,0,0-8.547Z" transform="translate(-231.078 -193.66)" fill="#fff"/>
      <path id="Path_577" data-name="Path 577" d="M563.1,310.811H545.675a3.675,3.675,0,0,1,0-7.349,3.625,3.625,0,0,1,1.7.424c-.013-.168-.02-.329-.02-.488A7.409,7.409,0,0,1,562,301.822a4.561,4.561,0,1,1,1.1,8.989Zm-17.421-6.773a3.1,3.1,0,1,0,0,6.2H563.1a3.991,3.991,0,1,0-1.227-7.788.283.283,0,0,1-.369-.223,6.834,6.834,0,0,0-13.493,2.178.283.283,0,0,1-.455.269A3.072,3.072,0,0,0,545.675,304.038Z" transform="translate(-229.495 -192.421)" fill="#262424"/>
      <path id="Path_578" data-name="Path 578" d="M1157.169,827.347a3,3,0,0,0-.926.141,5.011,5.011,0,1,0-9.895,1.6,2.383,2.383,0,1,0-1.443,4.278h12.266a3.01,3.01,0,0,0,0-6.017Z" transform="translate(-745.141 -645.183)" fill="#fff"/>
      <path id="Path_579" data-name="Path 579" d="M1155.788,832.327h-12.267a2.67,2.67,0,0,1,0-5.338,2.64,2.64,0,0,1,1.1.24v-.2a5.3,5.3,0,0,1,10.459-1.211,3.295,3.295,0,1,1,.7,6.513Zm-12.267-4.764a2.1,2.1,0,0,0,0,4.2h12.267a2.725,2.725,0,1,0-.838-5.317.283.283,0,0,1-.369-.223,4.729,4.729,0,0,0-9.39.809,4.612,4.612,0,0,0,.058.7.283.283,0,0,1-.455.269A2.077,2.077,0,0,0,1143.522,827.562Z" transform="translate(-743.76 -643.856)" fill="#262424"/>
      <path id="Path_580" data-name="Path 580" d="M1276.156,665.021h0a4.581,4.581,0,0,0-4.581,4.581h0a4.581,4.581,0,0,0-4.575-4.581h0a4.581,4.581,0,0,0,4.581-4.581h0a4.581,4.581,0,0,0,4.581,4.581h0Z" transform="translate(-852.026 -505.362)" fill="#88c0c2"/>
      <path id="Path_581" data-name="Path 581" d="M377.465,169.537h0a3.437,3.437,0,0,0-3.437,3.437h0a3.437,3.437,0,0,0-3.437-3.437h0a3.437,3.437,0,0,0,3.437-3.437h0a3.437,3.437,0,0,0,3.437,3.437h0Z" transform="translate(-82.311 -80.89)" fill="#88c0c2"/>
      <path id="Path_582" data-name="Path 582" d="M406.575,688.873h0a4.192,4.192,0,0,0-4.193,4.191h0a4.192,4.192,0,0,0-4.192-4.192h0a4.192,4.192,0,0,0,4.192-4.192h0a4.192,4.192,0,0,0,4.192,4.192h0Z" transform="translate(-106.011 -526.176)" fill="#88c0c2"/>
      <circle id="Ellipse_26" data-name="Ellipse 26" cx="1.997" cy="1.997" r="1.997" transform="translate(349.06 96.382)" fill="#88c0c2"/>
      <circle id="Ellipse_27" data-name="Ellipse 27" cx="1.141" cy="1.141" r="1.141" transform="translate(415.039 112.687)" fill="#de9244"/>
      <circle id="Ellipse_28" data-name="Ellipse 28" cx="1.71" cy="1.71" r="1.71" transform="translate(275.54 182.676)" fill="#de9244"/>
      <circle id="Ellipse_29" data-name="Ellipse 29" cx="2.185" cy="2.185" r="2.185" transform="translate(274.73 134.751)" fill="#de9244"/>
      <path id="Path_583" data-name="Path 583" d="M368.724,1286.565H316.783a.283.283,0,1,1,0-.565h51.941a.283.283,0,1,1,0,.565Z" transform="translate(-35.866 -1042.508)" fill="#262424"/>
      <path id="Path_584" data-name="Path 584" d="M887.749,1286.565H835.813a.283.283,0,1,1,0-.565h51.937a.283.283,0,1,1,0,.565Z" transform="translate(-481.539 -1042.508)" fill="#262424"/>
      <path id="Path_585" data-name="Path 585" d="M715.017,1328.725h-33.3a.283.283,0,1,1,0-.565h33.3a.283.283,0,1,1,0,.565Z" transform="translate(-349.219 -1078.709)" fill="#262424"/>
      <path id="Path_586" data-name="Path 586" d="M526.4,1328.725H511.373a.283.283,0,1,1,0-.565H526.4a.283.283,0,0,1,0,.565Z" transform="translate(-202.954 -1078.709)" fill="#262424"/>
      <path id="Path_587" data-name="Path 587" d="M996.389,1328.725h-4.557a.283.283,0,1,1,0-.565h4.558a.283.283,0,0,1,0,.565Z" transform="translate(-615.507 -1078.709)" fill="#262424"/>
    </g>
  </g>
</svg>
